<svg id="svg" version="1.1" xmlns="http://www.w3.org/2000/svg" xmlns:xlink="http://www.w3.org/1999/xlink" width="400" height="402.6785714285714" viewBox="0, 0, 400,402.6785714285714"><g id="svgg"><path id="path0" d="M197.600 155.432 C 190.773 156.359,189.984 156.502,189.767 156.853 C 189.649 157.044,189.124 157.200,188.600 157.200 C 188.076 157.200,187.536 157.380,187.400 157.600 C 187.264 157.820,186.903 158.000,186.598 158.000 C 181.329 158.000,160.800 174.859,160.800 179.186 C 160.800 179.377,160.665 179.593,160.500 179.667 C 159.892 179.937,157.477 185.430,156.221 189.400 C 153.538 197.884,153.107 203.473,154.586 210.600 C 156.079 217.789,156.354 218.872,157.377 221.600 C 157.749 222.590,158.163 223.755,158.296 224.189 C 160.320 230.747,169.001 241.840,175.998 246.807 C 187.642 255.073,202.025 257.660,217.000 254.180 C 218.540 253.822,220.297 253.434,220.905 253.318 C 221.513 253.203,222.108 252.949,222.229 252.754 C 222.349 252.559,222.799 252.400,223.229 252.400 C 223.659 252.400,224.323 252.231,224.705 252.024 C 225.087 251.818,226.840 250.980,228.600 250.162 C 236.419 246.528,242.565 240.882,245.745 234.412 C 246.493 232.888,246.221 232.463,243.600 231.063 C 241.122 229.740,238.513 228.224,237.538 227.543 C 236.954 227.134,236.279 226.800,236.038 226.800 C 235.797 226.800,235.600 226.620,235.600 226.400 C 235.600 226.180,235.416 226.000,235.192 226.000 C 234.968 226.000,234.023 225.518,233.092 224.928 C 232.161 224.338,231.040 223.657,230.600 223.413 C 227.333 221.604,225.163 220.263,224.952 219.922 C 224.815 219.701,224.098 220.594,223.359 221.907 C 216.660 233.794,198.604 235.665,188.414 225.529 C 185.763 222.891,182.800 218.137,182.800 216.522 C 182.800 216.103,182.638 215.589,182.441 215.380 C 181.478 214.360,181.073 201.486,181.894 198.000 C 184.020 188.981,189.577 182.472,197.483 179.740 C 199.810 178.935,208.683 178.853,211.067 179.614 C 216.580 181.372,222.424 185.713,224.136 189.321 C 224.908 190.949,225.382 191.121,226.445 190.160 C 227.110 189.557,230.824 186.878,240.900 179.732 C 245.709 176.321,245.639 176.449,244.040 173.927 C 241.169 169.401,230.777 160.000,228.643 160.000 C 228.409 160.000,224.286 158.187,223.105 157.566 C 222.723 157.365,221.969 157.200,221.429 157.200 C 220.889 157.200,220.351 157.044,220.233 156.854 C 219.372 155.461,204.345 154.517,197.600 155.432 " stroke="none" fill="#fcfafa" fill-rule="evenodd"></path><path id="path1" d="M165.600 50.800 C 165.600 51.020,165.082 51.200,164.449 51.200 C 163.816 51.200,163.074 51.470,162.800 51.800 C 162.526 52.130,162.054 52.400,161.751 52.400 C 161.448 52.400,161.200 52.580,161.200 52.800 C 161.200 53.020,160.750 53.200,160.200 53.200 C 159.650 53.200,159.200 53.380,159.200 53.600 C 159.200 53.820,158.922 54.000,158.582 54.000 C 157.886 54.000,156.000 55.740,156.000 56.382 C 156.000 56.612,155.807 56.800,155.571 56.800 C 154.934 56.800,154.000 57.853,154.000 58.571 C 154.000 58.917,153.820 59.200,153.600 59.200 C 153.380 59.200,153.200 59.470,153.200 59.800 C 153.200 60.130,153.020 60.400,152.800 60.400 C 152.580 60.400,152.400 60.760,152.400 61.200 C 152.400 61.644,152.133 62.000,151.800 62.000 C 151.427 62.000,151.200 62.378,151.200 63.000 C 151.200 63.550,151.020 64.000,150.800 64.000 C 150.580 64.000,150.400 64.720,150.400 65.600 C 150.400 66.480,150.220 67.200,150.000 67.200 C 149.755 67.200,149.600 69.133,149.600 72.200 C 149.600 75.267,149.755 77.200,150.000 77.200 C 150.220 77.200,150.400 77.830,150.400 78.600 C 150.400 79.370,150.580 80.000,150.800 80.000 C 151.020 80.000,151.200 80.456,151.200 81.013 C 151.200 81.569,151.470 82.129,151.800 82.255 C 152.130 82.382,152.400 82.736,152.400 83.043 C 152.400 83.349,152.580 83.600,152.800 83.600 C 153.020 83.600,153.200 83.878,153.200 84.218 C 153.200 84.914,154.940 86.800,155.582 86.800 C 155.812 86.800,156.000 86.988,156.000 87.218 C 156.000 87.860,157.886 89.600,158.582 89.600 C 158.922 89.600,159.200 89.780,159.200 90.000 C 159.200 90.220,159.470 90.400,159.800 90.400 C 160.130 90.400,160.400 90.670,160.400 91.000 C 160.400 91.330,160.720 91.600,161.112 91.600 C 161.503 91.600,162.083 91.960,162.400 92.400 C 162.717 92.840,163.164 93.200,163.393 93.200 C 163.623 93.200,164.157 93.661,164.580 94.225 C 165.824 95.881,166.675 96.800,166.965 96.800 C 167.516 96.800,169.200 98.786,169.200 99.435 C 169.200 99.804,169.528 100.397,169.928 100.753 C 170.329 101.109,170.998 101.985,171.415 102.700 C 171.831 103.415,172.314 104.000,172.486 104.000 C 172.659 104.000,172.800 104.360,172.800 104.800 C 172.800 105.240,172.980 105.600,173.200 105.600 C 173.420 105.600,173.600 106.050,173.600 106.600 C 173.600 107.150,173.780 107.600,174.000 107.600 C 174.220 107.600,174.400 107.960,174.400 108.400 C 174.400 108.844,174.667 109.200,175.000 109.200 C 175.419 109.200,175.600 109.622,175.600 110.600 C 175.600 111.370,175.780 112.000,176.000 112.000 C 176.220 112.000,176.400 112.630,176.400 113.400 C 176.400 114.170,176.580 114.800,176.800 114.800 C 177.020 114.800,177.200 115.509,177.200 116.376 C 177.200 117.243,177.380 118.064,177.600 118.200 C 177.820 118.336,178.000 119.342,178.000 120.436 C 178.000 121.835,178.178 122.493,178.600 122.655 C 179.679 123.070,179.230 123.600,177.800 123.600 C 177.030 123.600,176.400 123.780,176.400 124.000 C 176.400 124.220,175.770 124.400,175.000 124.400 C 174.230 124.400,173.600 124.580,173.600 124.800 C 173.600 125.020,173.144 125.200,172.587 125.200 C 172.031 125.200,171.471 125.470,171.345 125.800 C 171.218 126.130,170.684 126.400,170.157 126.400 C 169.631 126.400,169.200 126.580,169.200 126.800 C 169.200 127.020,168.671 127.200,168.024 127.200 C 167.377 127.200,166.736 127.380,166.600 127.600 C 166.464 127.820,166.003 128.000,165.576 128.000 C 165.149 128.000,164.800 128.180,164.800 128.400 C 164.800 128.620,164.434 128.800,163.987 128.800 C 163.541 128.800,163.071 129.070,162.945 129.400 C 162.818 129.730,162.374 130.000,161.957 130.000 C 161.541 130.000,161.200 130.180,161.200 130.400 C 161.200 130.620,160.840 130.800,160.400 130.800 C 159.960 130.800,159.600 130.980,159.600 131.200 C 159.600 131.420,159.330 131.600,159.000 131.600 C 158.670 131.600,158.400 131.780,158.400 132.000 C 158.400 132.220,158.040 132.400,157.600 132.400 C 157.160 132.400,156.800 132.568,156.800 132.773 C 156.800 132.978,156.395 133.274,155.900 133.430 C 155.405 133.587,154.709 134.049,154.353 134.457 C 153.997 134.866,153.412 135.200,153.053 135.200 C 152.694 135.200,152.400 135.380,152.400 135.600 C 152.400 135.820,152.130 136.000,151.800 136.000 C 151.470 136.000,151.200 136.180,151.200 136.400 C 151.200 136.620,151.020 136.800,150.800 136.800 C 150.580 136.800,150.400 136.080,150.400 135.200 C 150.400 134.320,150.220 133.600,150.000 133.600 C 149.767 133.600,149.600 132.267,149.600 130.400 C 149.600 128.533,149.433 127.200,149.200 127.200 C 148.980 127.200,148.800 126.294,148.800 125.187 C 148.800 123.768,148.623 123.107,148.200 122.945 C 147.870 122.818,147.600 122.284,147.600 121.757 C 147.600 121.231,147.420 120.800,147.200 120.800 C 146.980 120.800,146.800 120.440,146.800 120.000 C 146.800 119.560,146.620 119.200,146.400 119.200 C 146.180 119.200,145.994 118.885,145.987 118.500 C 145.973 117.705,145.091 116.406,144.556 116.389 C 144.360 116.383,143.496 115.573,142.635 114.589 C 141.774 113.605,140.779 112.800,140.423 112.800 C 140.068 112.800,139.517 112.440,139.200 112.000 C 138.825 111.480,138.165 111.200,137.312 111.200 C 136.590 111.200,136.000 111.033,136.000 110.829 C 136.000 110.625,135.432 110.175,134.739 109.829 C 133.333 109.128,121.200 108.883,121.200 109.555 C 121.200 109.751,120.570 110.029,119.800 110.174 C 119.030 110.318,118.400 110.608,118.400 110.818 C 118.400 111.028,117.950 111.200,117.400 111.200 C 116.850 111.200,116.400 111.380,116.400 111.600 C 116.400 111.820,116.124 112.000,115.787 112.000 C 114.982 112.000,108.400 118.575,108.400 119.379 C 108.400 119.721,108.220 120.000,108.000 120.000 C 107.780 120.000,107.600 120.450,107.600 121.000 C 107.600 121.550,107.420 122.000,107.200 122.000 C 106.980 122.000,106.800 122.540,106.800 123.200 C 106.800 123.860,106.620 124.400,106.400 124.400 C 106.151 124.400,106.000 126.733,106.000 130.600 C 106.000 134.467,106.151 136.800,106.400 136.800 C 106.620 136.800,106.800 137.430,106.800 138.200 C 106.800 138.970,106.980 139.600,107.200 139.600 C 107.420 139.600,107.600 139.853,107.600 140.162 C 107.600 140.948,109.272 144.000,109.703 144.000 C 110.106 144.000,111.200 145.016,111.200 145.390 C 111.200 145.754,113.110 147.600,113.487 147.600 C 113.665 147.600,114.148 148.050,114.561 148.600 C 114.974 149.150,115.557 149.600,115.856 149.600 C 116.155 149.600,116.400 149.780,116.400 150.000 C 116.400 150.220,116.850 150.400,117.400 150.400 C 117.950 150.400,118.400 150.580,118.400 150.800 C 118.400 151.020,118.929 151.200,119.576 151.200 C 120.223 151.200,120.864 151.380,121.000 151.600 C 121.136 151.820,122.387 152.000,123.781 152.000 C 125.664 152.000,126.374 152.154,126.545 152.600 C 126.712 153.035,127.409 153.203,129.087 153.213 C 131.611 153.227,132.966 153.903,132.564 154.949 C 132.427 155.307,132.154 155.600,131.957 155.600 C 131.761 155.600,131.600 155.870,131.600 156.200 C 131.600 156.530,131.420 156.800,131.200 156.800 C 130.980 156.800,130.800 157.160,130.800 157.600 C 130.800 158.040,130.620 158.400,130.400 158.400 C 130.180 158.400,130.000 158.760,130.000 159.200 C 130.000 159.640,129.820 160.000,129.600 160.000 C 129.380 160.000,129.200 160.450,129.200 161.000 C 129.200 161.550,129.007 162.000,128.771 162.000 C 128.066 162.000,127.200 163.086,127.200 163.971 C 127.200 164.427,127.020 164.800,126.800 164.800 C 126.580 164.800,126.400 165.160,126.400 165.600 C 126.400 166.040,126.220 166.400,126.000 166.400 C 125.780 166.400,125.600 166.766,125.600 167.213 C 125.600 167.659,125.330 168.129,125.000 168.255 C 124.670 168.382,124.400 168.787,124.400 169.154 C 124.400 169.522,124.040 170.083,123.600 170.400 C 123.160 170.717,122.800 171.310,122.800 171.717 C 122.800 172.699,121.857 173.600,120.829 173.600 C 120.373 173.600,120.000 173.780,120.000 174.000 C 120.000 174.220,119.640 174.400,119.200 174.400 C 118.760 174.400,118.400 174.580,118.400 174.800 C 118.400 175.029,117.200 175.200,115.600 175.200 C 114.000 175.200,112.800 175.029,112.800 174.800 C 112.800 174.580,112.271 174.400,111.624 174.400 C 110.977 174.400,110.336 174.220,110.200 174.000 C 110.064 173.780,109.243 173.600,108.376 173.600 C 107.509 173.600,106.800 173.420,106.800 173.200 C 106.800 172.980,106.067 172.800,105.171 172.800 C 104.257 172.800,103.280 172.537,102.943 172.200 C 102.613 171.870,101.906 171.600,101.371 171.600 C 100.837 171.600,100.400 171.420,100.400 171.200 C 100.400 170.980,99.770 170.800,99.000 170.800 C 98.230 170.800,97.600 170.620,97.600 170.400 C 97.600 170.180,97.240 170.000,96.800 170.000 C 96.360 170.000,96.000 169.820,96.000 169.600 C 96.000 169.380,95.550 169.200,95.000 169.200 C 94.450 169.200,94.000 169.014,94.000 168.787 C 94.000 168.561,93.685 168.255,93.300 168.108 C 92.915 167.961,92.251 167.516,91.825 167.120 C 91.398 166.724,90.768 166.395,90.425 166.389 C 90.081 166.383,89.096 165.573,88.235 164.589 C 87.374 163.605,86.421 162.800,86.117 162.800 C 85.471 162.800,83.600 161.030,83.600 160.418 C 83.600 160.188,83.330 160.000,83.000 160.000 C 82.670 160.000,82.400 159.722,82.400 159.382 C 82.400 159.042,81.995 158.344,81.500 157.832 C 80.085 156.367,79.200 155.221,79.200 154.851 C 79.200 154.665,78.750 154.174,78.200 153.761 C 77.650 153.348,77.200 152.865,77.200 152.687 C 77.200 152.310,75.354 150.400,74.990 150.400 C 74.583 150.400,73.600 149.289,73.600 148.829 C 73.600 148.593,73.240 148.400,72.800 148.400 C 72.360 148.400,72.000 148.220,72.000 148.000 C 72.000 147.780,71.730 147.600,71.400 147.600 C 71.070 147.600,70.800 147.420,70.800 147.200 C 70.800 146.980,70.260 146.800,69.600 146.800 C 68.940 146.800,68.400 146.620,68.400 146.400 C 68.400 146.149,65.867 146.000,61.600 146.000 C 57.333 146.000,54.800 146.149,54.800 146.400 C 54.800 146.620,54.260 146.800,53.600 146.800 C 52.940 146.800,52.400 146.980,52.400 147.200 C 52.400 147.420,51.847 147.600,51.171 147.600 C 49.946 147.600,48.800 148.359,48.800 149.171 C 48.800 149.407,48.434 149.600,47.987 149.600 C 47.152 149.600,44.400 152.045,44.400 152.787 C 44.400 153.014,44.207 153.200,43.971 153.200 C 43.334 153.200,42.400 154.253,42.400 154.971 C 42.400 155.317,42.220 155.600,42.000 155.600 C 41.780 155.600,41.600 156.050,41.600 156.600 C 41.600 157.150,41.420 157.600,41.200 157.600 C 40.980 157.600,40.800 158.121,40.800 158.757 C 40.800 159.417,40.542 160.013,40.200 160.145 C 39.804 160.297,39.600 160.923,39.600 161.987 C 39.600 162.874,39.420 163.600,39.200 163.600 C 38.960 163.600,38.800 165.200,38.800 167.600 C 38.800 170.000,38.960 171.600,39.200 171.600 C 39.420 171.600,39.600 172.410,39.600 173.400 C 39.600 174.733,39.756 175.200,40.200 175.200 C 40.573 175.200,40.800 175.578,40.800 176.200 C 40.800 176.750,40.980 177.200,41.200 177.200 C 41.420 177.200,41.600 177.560,41.600 178.000 C 41.600 178.440,41.780 178.800,42.000 178.800 C 42.220 178.800,42.406 179.115,42.413 179.500 C 42.427 180.295,43.309 181.594,43.844 181.611 C 44.040 181.617,44.904 182.427,45.765 183.411 C 46.626 184.395,47.621 185.200,47.977 185.200 C 48.332 185.200,48.883 185.560,49.200 186.000 C 49.517 186.440,50.078 186.800,50.446 186.800 C 50.813 186.800,51.218 187.070,51.345 187.400 C 51.479 187.751,52.079 188.000,52.787 188.000 C 53.454 188.000,54.000 188.180,54.000 188.400 C 54.000 188.620,54.810 188.800,55.800 188.800 C 56.790 188.800,57.600 188.980,57.600 189.200 C 57.600 189.431,58.867 189.600,60.600 189.600 C 62.333 189.600,63.600 189.431,63.600 189.200 C 63.600 188.980,64.399 188.800,65.376 188.800 C 66.353 188.800,67.264 188.620,67.400 188.400 C 67.536 188.180,68.177 188.000,68.824 188.000 C 69.603 188.000,70.000 187.797,70.000 187.400 C 70.000 187.027,70.378 186.800,71.000 186.800 C 71.550 186.800,72.000 186.620,72.000 186.400 C 72.000 186.180,72.540 186.000,73.200 186.000 C 73.860 186.000,74.400 185.820,74.400 185.600 C 74.400 185.380,74.850 185.200,75.400 185.200 C 75.950 185.200,76.400 185.020,76.400 184.800 C 76.400 184.580,76.946 184.400,77.613 184.400 C 78.321 184.400,78.921 184.151,79.055 183.800 C 79.205 183.409,79.828 183.200,80.843 183.200 C 81.699 183.200,82.400 183.020,82.400 182.800 C 82.400 182.557,84.200 182.400,87.000 182.400 C 89.800 182.400,91.600 182.557,91.600 182.800 C 91.600 183.020,92.571 183.200,93.757 183.200 C 95.306 183.200,95.979 183.369,96.145 183.800 C 96.307 184.223,96.968 184.400,98.387 184.400 C 99.494 184.400,100.400 184.580,100.400 184.800 C 100.400 185.020,101.210 185.200,102.200 185.200 C 103.190 185.200,104.000 185.380,104.000 185.600 C 104.000 185.820,104.810 186.000,105.800 186.000 C 106.790 186.000,107.600 186.180,107.600 186.400 C 107.600 186.620,108.391 186.800,109.357 186.800 C 110.550 186.800,111.188 186.993,111.345 187.400 C 111.471 187.730,111.822 188.000,112.124 188.000 C 113.295 188.000,116.400 191.456,116.400 192.760 C 116.400 193.596,116.596 194.000,117.000 194.000 C 117.442 194.000,117.600 194.462,117.600 195.757 C 117.600 196.950,117.407 197.588,117.000 197.745 C 116.500 197.936,116.400 199.079,116.400 204.587 C 116.400 208.474,116.244 211.200,116.022 211.200 C 115.814 211.200,115.589 212.009,115.522 212.997 L 115.400 214.794 114.254 214.197 C 113.624 213.869,112.679 213.600,112.154 213.600 C 111.629 213.600,111.200 213.420,111.200 213.200 C 111.200 212.980,110.750 212.800,110.200 212.800 C 109.650 212.800,109.200 212.620,109.200 212.400 C 109.200 212.180,108.660 212.000,108.000 212.000 C 107.340 212.000,106.800 211.820,106.800 211.600 C 106.800 211.349,104.267 211.200,100.000 211.200 C 95.733 211.200,93.200 211.349,93.200 211.600 C 93.200 211.820,92.660 212.000,92.000 212.000 C 91.340 212.000,90.800 212.180,90.800 212.400 C 90.800 212.620,90.350 212.800,89.800 212.800 C 89.250 212.800,88.800 212.980,88.800 213.200 C 88.800 213.420,88.521 213.600,88.179 213.600 C 87.375 213.600,80.800 220.182,80.800 220.987 C 80.800 221.324,80.620 221.600,80.400 221.600 C 80.180 221.600,80.000 222.050,80.000 222.600 C 80.000 223.150,79.820 223.600,79.600 223.600 C 79.380 223.600,79.200 224.146,79.200 224.813 C 79.200 225.521,78.951 226.121,78.600 226.255 C 77.709 226.597,77.709 238.313,78.600 238.655 C 78.942 238.787,79.200 239.383,79.200 240.043 C 79.200 240.679,79.380 241.200,79.600 241.200 C 79.820 241.200,80.000 241.650,80.000 242.200 C 80.000 242.750,80.180 243.200,80.400 243.200 C 80.620 243.200,80.800 243.478,80.800 243.817 C 80.800 244.157,81.250 244.920,81.800 245.513 C 82.350 246.107,82.800 246.737,82.800 246.914 C 82.800 247.394,84.696 249.200,85.201 249.200 C 85.441 249.200,86.055 249.650,86.565 250.200 C 87.075 250.750,87.786 251.200,88.146 251.200 C 88.506 251.200,88.800 251.380,88.800 251.600 C 88.800 251.820,89.250 252.000,89.800 252.000 C 90.350 252.000,90.800 252.180,90.800 252.400 C 90.800 252.620,91.083 252.800,91.429 252.800 C 91.774 252.800,92.327 253.070,92.657 253.400 C 93.041 253.784,94.029 254.000,95.405 254.000 C 96.586 254.000,97.664 254.180,97.800 254.400 C 98.123 254.922,102.000 254.922,102.000 254.400 C 102.000 254.180,102.996 254.000,104.213 254.000 C 105.810 254.000,106.489 253.833,106.655 253.400 C 106.787 253.058,107.383 252.800,108.043 252.800 C 108.679 252.800,109.200 252.620,109.200 252.400 C 109.200 252.180,109.610 252.000,110.112 252.000 C 110.613 252.000,111.283 251.640,111.600 251.200 C 111.917 250.760,112.407 250.400,112.688 250.400 C 113.300 250.400,117.600 246.148,117.600 245.543 C 117.600 245.311,118.140 244.617,118.800 244.000 C 119.460 243.383,120.000 242.578,120.000 242.211 C 120.000 241.460,120.920 240.400,121.571 240.400 C 121.807 240.400,122.000 240.220,122.000 240.000 C 122.000 239.780,122.360 239.600,122.800 239.600 C 123.333 239.600,123.600 239.867,123.600 240.400 C 123.600 240.840,123.780 241.200,124.000 241.200 C 124.220 241.200,124.400 241.462,124.400 241.782 C 124.400 242.102,124.850 242.814,125.400 243.364 C 125.950 243.914,126.400 244.608,126.400 244.906 C 126.400 245.205,126.760 245.836,127.200 246.308 C 127.640 246.780,128.000 247.444,128.000 247.783 C 128.000 248.122,128.270 248.400,128.600 248.400 C 128.958 248.400,129.200 248.768,129.200 249.312 C 129.200 249.813,129.560 250.483,130.000 250.800 C 130.440 251.117,130.800 251.697,130.800 252.088 C 130.800 252.480,130.980 252.800,131.200 252.800 C 131.420 252.800,131.600 252.993,131.600 253.229 C 131.600 253.464,131.825 253.908,132.100 254.215 C 133.344 255.602,133.600 256.006,133.600 256.583 C 133.600 256.922,133.780 257.200,134.000 257.200 C 134.220 257.200,134.400 257.470,134.400 257.800 C 134.400 258.130,134.580 258.400,134.800 258.400 C 135.020 258.400,135.200 258.760,135.200 259.200 C 135.200 259.640,135.380 260.000,135.600 260.000 C 136.452 260.000,135.924 260.951,134.136 262.640 C 133.111 263.608,132.057 264.400,131.792 264.400 C 131.528 264.400,130.974 264.850,130.561 265.400 C 130.147 265.951,129.404 266.400,128.905 266.400 C 128.407 266.400,128.000 266.580,128.000 266.800 C 128.000 267.020,127.640 267.200,127.200 267.200 C 126.760 267.200,126.400 267.380,126.400 267.600 C 126.400 267.820,126.059 268.000,125.643 268.000 C 125.226 268.000,124.782 268.270,124.655 268.600 C 124.529 268.930,124.059 269.200,123.613 269.200 C 123.166 269.200,122.800 269.380,122.800 269.600 C 122.800 269.820,122.170 270.000,121.400 270.000 C 120.630 270.000,120.000 270.180,120.000 270.400 C 120.000 270.620,119.010 270.800,117.800 270.800 C 116.590 270.800,115.600 270.980,115.600 271.200 C 115.600 271.426,114.467 271.600,113.000 271.600 C 111.533 271.600,110.400 271.774,110.400 272.000 C 110.400 272.222,109.343 272.400,108.029 272.400 C 106.454 272.400,105.456 272.602,105.057 273.000 C 104.727 273.330,103.994 273.600,103.429 273.600 C 102.863 273.600,102.400 273.780,102.400 274.000 C 102.400 274.220,101.990 274.400,101.488 274.400 C 100.987 274.400,100.317 274.760,100.000 275.200 C 99.683 275.640,99.238 276.000,99.012 276.000 C 98.299 276.000,95.200 279.075,95.200 279.782 C 95.200 280.539,94.283 281.600,93.629 281.600 C 93.393 281.600,93.200 281.960,93.200 282.400 C 93.200 282.840,93.020 283.200,92.800 283.200 C 92.580 283.200,92.400 283.650,92.400 284.200 C 92.400 284.750,92.220 285.200,92.000 285.200 C 91.780 285.200,91.600 285.729,91.600 286.376 C 91.600 287.023,91.420 287.664,91.200 287.800 C 90.961 287.948,90.800 290.537,90.800 294.224 C 90.800 298.075,90.951 300.400,91.200 300.400 C 91.420 300.400,91.600 300.940,91.600 301.600 C 91.600 302.260,91.780 302.800,92.000 302.800 C 92.220 302.800,92.400 303.250,92.400 303.800 C 92.400 304.350,92.580 304.800,92.800 304.800 C 93.020 304.800,93.200 305.160,93.200 305.600 C 93.200 306.040,93.393 306.400,93.629 306.400 C 94.086 306.400,95.200 307.382,95.200 307.785 C 95.200 308.198,97.950 310.800,98.387 310.800 C 98.614 310.800,98.800 310.993,98.800 311.229 C 98.800 311.866,99.853 312.800,100.571 312.800 C 100.917 312.800,101.200 312.980,101.200 313.200 C 101.200 313.420,101.650 313.600,102.200 313.600 C 102.750 313.600,103.200 313.780,103.200 314.000 C 103.200 314.220,103.541 314.400,103.957 314.400 C 104.374 314.400,104.818 314.670,104.945 315.000 C 105.111 315.433,105.790 315.600,107.387 315.600 C 108.604 315.600,109.600 315.780,109.600 316.000 C 109.600 316.226,110.733 316.400,112.200 316.400 C 113.667 316.400,114.800 316.226,114.800 316.000 C 114.800 315.780,115.706 315.600,116.813 315.600 C 118.232 315.600,118.893 315.423,119.055 315.000 C 119.185 314.662,119.781 314.400,120.419 314.400 C 121.043 314.400,121.664 314.220,121.800 314.000 C 121.936 313.780,122.357 313.600,122.735 313.600 C 123.114 313.600,123.683 313.240,124.000 312.800 C 124.317 312.360,124.854 312.000,125.192 312.000 C 125.531 312.000,126.346 311.374,127.004 310.609 C 127.662 309.843,128.348 309.213,128.529 309.209 C 129.006 309.196,130.000 308.129,130.000 307.629 C 130.000 307.393,130.180 307.200,130.400 307.200 C 130.620 307.200,130.800 306.840,130.800 306.400 C 130.800 305.960,130.980 305.600,131.200 305.600 C 131.420 305.600,131.600 305.240,131.600 304.800 C 131.600 304.360,131.780 304.000,132.000 304.000 C 132.220 304.000,132.400 303.550,132.400 303.000 C 132.400 302.378,132.627 302.000,133.000 302.000 C 133.444 302.000,133.600 301.533,133.600 300.200 C 133.600 299.210,133.780 298.400,134.000 298.400 C 134.231 298.400,134.400 297.141,134.400 295.424 C 134.400 293.787,134.580 292.336,134.800 292.200 C 135.020 292.064,135.200 290.973,135.200 289.776 C 135.200 288.579,135.380 287.600,135.600 287.600 C 135.820 287.600,136.000 287.079,136.000 286.443 C 136.000 285.783,136.258 285.187,136.600 285.055 C 136.951 284.921,137.200 284.321,137.200 283.613 C 137.200 282.946,137.380 282.400,137.600 282.400 C 137.820 282.400,138.000 282.051,138.000 281.624 C 138.000 281.197,138.180 280.736,138.400 280.600 C 138.620 280.464,138.800 280.003,138.800 279.576 C 138.800 279.149,138.980 278.800,139.200 278.800 C 139.420 278.800,139.600 278.521,139.600 278.181 C 139.600 277.840,140.050 277.145,140.600 276.635 C 141.150 276.125,141.600 275.454,141.600 275.142 C 141.600 274.831,141.960 274.317,142.400 274.000 C 142.840 273.683,143.200 273.193,143.200 272.912 C 143.200 272.630,143.380 272.400,143.600 272.400 C 143.820 272.400,144.000 272.040,144.000 271.600 C 144.000 271.160,144.204 270.800,144.453 270.800 C 144.702 270.800,145.242 270.412,145.653 269.939 L 146.400 269.078 147.147 269.939 C 147.558 270.412,148.058 270.800,148.259 270.800 C 148.459 270.800,148.883 271.160,149.200 271.600 C 149.517 272.040,150.097 272.400,150.488 272.400 C 150.880 272.400,151.200 272.670,151.200 273.000 C 151.200 273.330,151.430 273.600,151.712 273.600 C 151.993 273.600,152.483 273.960,152.800 274.400 C 153.117 274.840,153.697 275.200,154.088 275.200 C 154.480 275.200,154.800 275.380,154.800 275.600 C 154.800 275.820,155.051 276.000,155.357 276.000 C 155.664 276.000,156.018 276.270,156.145 276.600 C 156.271 276.930,156.651 277.200,156.987 277.200 C 157.324 277.200,157.600 277.380,157.600 277.600 C 157.600 277.820,157.960 278.000,158.400 278.000 C 158.840 278.000,159.200 278.180,159.200 278.400 C 159.200 278.620,159.568 278.800,160.018 278.800 C 160.468 278.800,161.286 279.250,161.836 279.800 C 162.386 280.350,163.098 280.800,163.418 280.800 C 163.738 280.800,164.000 280.980,164.000 281.200 C 164.000 281.420,164.540 281.600,165.200 281.600 C 165.860 281.600,166.400 281.780,166.400 282.000 C 166.400 282.220,166.850 282.400,167.400 282.400 C 167.950 282.400,168.400 282.580,168.400 282.800 C 168.400 283.020,168.760 283.200,169.200 283.200 C 169.640 283.200,170.000 283.380,170.000 283.600 C 170.000 283.820,170.630 284.000,171.400 284.000 C 172.378 284.000,172.800 284.181,172.800 284.600 C 172.800 285.019,173.222 285.200,174.200 285.200 C 174.970 285.200,175.600 285.380,175.600 285.600 C 175.600 285.820,176.410 286.000,177.400 286.000 L 179.200 286.000 179.200 288.200 C 179.200 289.889,179.061 290.400,178.600 290.400 C 178.181 290.400,178.000 290.822,178.000 291.800 C 178.000 292.570,177.820 293.200,177.600 293.200 C 177.380 293.200,177.200 294.010,177.200 295.000 C 177.200 295.990,177.020 296.800,176.800 296.800 C 176.580 296.800,176.400 297.340,176.400 298.000 C 176.400 298.660,176.220 299.200,176.000 299.200 C 175.780 299.200,175.600 299.631,175.600 300.157 C 175.600 300.684,175.330 301.218,175.000 301.345 C 174.649 301.479,174.400 302.079,174.400 302.787 C 174.400 303.454,174.220 304.000,174.000 304.000 C 173.780 304.000,173.600 304.320,173.600 304.712 C 173.600 305.103,173.240 305.683,172.800 306.000 C 172.360 306.317,172.000 306.987,172.000 307.488 C 172.000 307.990,171.807 308.400,171.571 308.400 C 170.934 308.400,170.000 309.453,170.000 310.171 C 170.000 310.517,169.820 310.800,169.600 310.800 C 169.380 310.800,169.200 310.988,169.200 311.218 C 169.200 311.664,167.404 313.600,166.990 313.600 C 166.669 313.600,165.600 314.669,165.600 314.990 C 165.600 315.357,163.688 317.200,163.306 317.200 C 163.125 317.200,162.717 317.560,162.400 318.000 C 162.083 318.440,161.587 318.800,161.299 318.800 C 161.011 318.800,160.671 319.070,160.545 319.400 C 160.418 319.730,160.064 320.000,159.757 320.000 C 159.451 320.000,159.200 320.180,159.200 320.400 C 159.200 320.620,158.922 320.800,158.582 320.800 C 157.886 320.800,156.000 322.540,156.000 323.182 C 156.000 323.412,155.807 323.600,155.571 323.600 C 154.934 323.600,154.000 324.653,154.000 325.371 C 154.000 325.717,153.820 326.000,153.600 326.000 C 153.380 326.000,153.200 326.270,153.200 326.600 C 153.200 326.930,153.020 327.200,152.800 327.200 C 152.580 327.200,152.400 327.541,152.400 327.957 C 152.400 328.374,152.130 328.818,151.800 328.945 C 151.449 329.079,151.200 329.679,151.200 330.387 C 151.200 331.054,151.020 331.600,150.800 331.600 C 150.549 331.600,150.400 334.067,150.400 338.200 C 150.400 342.333,150.549 344.800,150.800 344.800 C 151.020 344.800,151.200 345.346,151.200 346.013 C 151.200 346.721,151.449 347.321,151.800 347.455 C 152.130 347.582,152.400 348.026,152.400 348.443 C 152.400 348.859,152.580 349.200,152.800 349.200 C 153.020 349.200,153.200 349.568,153.200 350.018 C 153.200 350.763,154.819 352.800,155.410 352.800 C 155.731 352.800,156.800 353.869,156.800 354.190 C 156.800 354.604,158.736 356.400,159.182 356.400 C 159.412 356.400,159.600 356.580,159.600 356.800 C 159.600 357.020,159.960 357.200,160.400 357.200 C 160.840 357.200,161.200 357.367,161.200 357.571 C 161.200 358.097,163.544 359.200,164.661 359.200 C 165.178 359.200,165.600 359.380,165.600 359.600 C 165.600 359.849,167.933 360.000,171.800 360.000 C 175.667 360.000,178.000 359.849,178.000 359.600 C 178.000 359.380,178.630 359.200,179.400 359.200 C 180.170 359.200,180.800 359.020,180.800 358.800 C 180.800 358.580,181.076 358.400,181.413 358.400 C 181.749 358.400,182.129 358.130,182.255 357.800 C 182.382 357.470,182.736 357.200,183.043 357.200 C 183.349 357.200,183.600 357.020,183.600 356.800 C 183.600 356.580,183.920 356.400,184.312 356.400 C 184.703 356.400,185.283 356.040,185.600 355.600 C 185.917 355.160,186.407 354.800,186.688 354.800 C 186.970 354.800,187.200 354.602,187.200 354.360 C 187.200 354.119,188.010 353.156,189.000 352.220 C 189.990 351.285,190.800 350.263,190.800 349.948 C 190.800 349.634,191.160 349.117,191.600 348.800 C 192.120 348.425,192.400 347.765,192.400 346.912 C 192.400 346.190,192.580 345.600,192.800 345.600 C 193.020 345.600,193.200 344.790,193.200 343.800 C 193.200 342.810,193.380 342.000,193.600 342.000 C 193.835 342.000,194.000 340.600,194.000 338.600 C 194.000 336.600,193.835 335.200,193.600 335.200 C 193.380 335.200,193.200 334.390,193.200 333.400 C 193.200 332.410,193.020 331.600,192.800 331.600 C 192.580 331.600,192.400 331.150,192.400 330.600 C 192.400 330.050,192.220 329.600,192.000 329.600 C 191.780 329.600,191.600 329.240,191.600 328.800 C 191.600 328.360,191.420 328.000,191.200 328.000 C 190.980 328.000,190.800 327.454,190.800 326.787 C 190.800 326.079,190.551 325.479,190.200 325.345 C 189.830 325.203,189.600 324.595,189.600 323.757 C 189.600 323.011,189.420 322.400,189.200 322.400 C 188.980 322.400,188.800 321.680,188.800 320.800 C 188.800 319.920,188.620 319.200,188.400 319.200 C 188.171 319.200,188.000 318.000,188.000 316.400 C 188.000 314.800,187.829 313.600,187.600 313.600 C 187.367 313.600,187.200 312.267,187.200 310.400 C 187.200 308.533,187.367 307.200,187.600 307.200 C 187.831 307.200,188.000 305.933,188.000 304.200 C 188.000 302.467,188.169 301.200,188.400 301.200 C 188.620 301.200,188.800 300.390,188.800 299.400 C 188.800 298.410,188.980 297.600,189.200 297.600 C 189.420 297.600,189.600 296.809,189.600 295.843 C 189.600 294.650,189.793 294.012,190.200 293.855 C 190.551 293.721,190.800 293.121,190.800 292.413 C 190.800 291.746,190.980 291.200,191.200 291.200 C 191.420 291.200,191.600 290.840,191.600 290.400 C 191.600 289.644,191.867 289.600,196.400 289.600 C 199.333 289.600,201.200 289.444,201.200 289.200 C 201.200 288.947,204.000 288.800,208.800 288.800 C 215.289 288.800,216.400 288.712,216.400 288.200 C 216.400 287.756,216.867 287.600,218.200 287.600 C 219.853 287.600,220.000 287.681,220.000 288.600 C 220.000 289.150,219.820 289.600,219.600 289.600 C 219.380 289.600,219.200 290.230,219.200 291.000 C 219.200 291.770,219.020 292.400,218.800 292.400 C 218.580 292.400,218.400 292.940,218.400 293.600 C 218.400 294.260,218.220 294.800,218.000 294.800 C 217.751 294.800,217.600 297.133,217.600 301.000 C 217.600 304.867,217.751 307.200,218.000 307.200 C 218.220 307.200,218.400 307.830,218.400 308.600 C 218.400 309.370,218.580 310.000,218.800 310.000 C 219.020 310.000,219.200 310.326,219.200 310.725 C 219.200 311.123,219.524 311.798,219.920 312.225 C 220.316 312.651,220.761 313.315,220.908 313.700 C 221.055 314.085,221.361 314.400,221.587 314.400 C 221.814 314.400,222.000 314.586,222.000 314.813 C 222.000 315.296,224.623 318.000,225.092 318.000 C 225.267 318.000,225.748 318.450,226.161 319.000 C 226.574 319.550,227.157 320.000,227.456 320.000 C 227.755 320.000,228.000 320.180,228.000 320.400 C 228.000 320.620,228.450 320.800,229.000 320.800 C 229.550 320.800,230.000 320.980,230.000 321.200 C 230.000 321.420,230.360 321.600,230.800 321.600 C 231.240 321.600,231.600 321.780,231.600 322.000 C 231.600 322.229,232.800 322.400,234.400 322.400 C 236.622 322.400,237.200 322.524,237.200 323.000 C 237.200 323.400,237.600 323.600,238.400 323.600 C 239.200 323.600,239.600 323.400,239.600 323.000 C 239.600 322.517,240.222 322.400,242.800 322.400 C 244.667 322.400,246.000 322.233,246.000 322.000 C 246.000 321.780,246.360 321.600,246.800 321.600 C 247.240 321.600,247.600 321.420,247.600 321.200 C 247.600 320.980,248.230 320.800,249.000 320.800 C 249.770 320.800,250.400 320.620,250.400 320.400 C 250.400 320.180,250.671 320.000,251.002 320.000 C 251.334 320.000,252.403 319.190,253.379 318.200 C 254.355 317.210,255.314 316.400,255.509 316.400 C 255.705 316.400,256.106 315.950,256.400 315.400 C 256.694 314.850,257.085 314.400,257.268 314.400 C 257.450 314.400,257.600 314.040,257.600 313.600 C 257.600 313.160,257.780 312.800,258.000 312.800 C 258.220 312.800,258.400 312.350,258.400 311.800 C 258.400 311.250,258.580 310.800,258.800 310.800 C 259.020 310.800,259.200 310.459,259.200 310.043 C 259.200 309.626,259.470 309.182,259.800 309.055 C 260.222 308.893,260.400 308.235,260.400 306.836 C 260.400 305.742,260.580 304.736,260.800 304.600 C 261.021 304.463,261.200 302.663,261.200 300.576 C 261.200 298.325,261.038 296.800,260.800 296.800 C 260.580 296.800,260.400 295.990,260.400 295.000 C 260.400 293.667,260.244 293.200,259.800 293.200 C 259.427 293.200,259.200 292.822,259.200 292.200 C 259.200 291.650,259.020 291.200,258.800 291.200 C 258.580 291.200,258.400 290.840,258.400 290.400 C 258.400 289.960,258.220 289.600,258.000 289.600 C 257.780 289.600,257.600 289.285,257.600 288.900 C 257.599 288.179,255.946 286.000,255.400 286.000 C 255.029 286.000,253.201 283.923,253.200 283.500 C 253.200 283.335,252.822 283.200,252.360 283.200 C 251.899 283.200,251.017 282.660,250.400 282.000 C 249.783 281.340,248.901 280.800,248.440 280.800 C 247.960 280.800,247.600 280.543,247.600 280.200 C 247.600 279.870,247.317 279.600,246.971 279.600 C 245.624 279.600,245.026 278.445,245.956 277.638 C 246.420 277.235,246.800 276.702,246.800 276.453 C 246.800 276.204,247.210 276.000,247.712 276.000 C 248.213 276.000,248.883 275.640,249.200 275.200 C 249.517 274.760,250.031 274.400,250.341 274.400 C 250.652 274.400,251.500 273.770,252.226 273.000 C 252.952 272.230,253.828 271.600,254.173 271.600 C 254.518 271.600,254.800 271.420,254.800 271.200 C 254.800 270.980,255.070 270.800,255.400 270.800 C 255.730 270.800,256.000 270.641,256.000 270.447 C 256.000 269.587,257.671 269.707,258.597 270.633 C 259.129 271.165,259.675 271.600,259.810 271.600 C 260.332 271.600,261.200 272.777,261.200 273.483 C 261.200 273.890,261.560 274.483,262.000 274.800 C 262.440 275.117,262.800 275.703,262.800 276.101 C 262.800 276.499,263.070 276.929,263.400 277.055 C 263.730 277.182,264.000 277.626,264.000 278.043 C 264.000 278.459,264.180 278.800,264.400 278.800 C 264.620 278.800,264.800 279.160,264.800 279.600 C 264.800 280.040,264.980 280.400,265.200 280.400 C 265.420 280.400,265.600 280.850,265.600 281.400 C 265.600 281.950,265.780 282.400,266.000 282.400 C 266.220 282.400,266.400 282.760,266.400 283.200 C 266.400 283.644,266.667 284.000,267.000 284.000 C 267.444 284.000,267.600 284.467,267.600 285.800 C 267.600 286.790,267.780 287.600,268.000 287.600 C 268.220 287.600,268.400 288.410,268.400 289.400 C 268.400 290.390,268.580 291.200,268.800 291.200 C 269.037 291.200,269.200 292.667,269.200 294.800 C 269.200 296.933,269.363 298.400,269.600 298.400 C 269.820 298.400,270.000 299.109,270.000 299.976 C 270.000 300.843,270.180 301.664,270.400 301.800 C 270.620 301.936,270.800 302.402,270.800 302.836 C 270.800 303.270,271.070 303.729,271.400 303.855 C 271.730 303.982,272.000 304.426,272.000 304.843 C 272.000 305.259,272.180 305.600,272.400 305.600 C 272.620 305.600,272.800 305.960,272.800 306.400 C 272.800 306.840,272.980 307.200,273.200 307.200 C 273.420 307.200,273.600 307.470,273.600 307.800 C 273.600 308.130,273.751 308.400,273.936 308.400 C 274.121 308.400,275.130 309.210,276.178 310.200 C 277.226 311.190,278.335 312.000,278.642 312.000 C 278.949 312.000,279.200 312.180,279.200 312.400 C 279.200 312.620,279.560 312.800,280.000 312.800 C 280.440 312.800,280.800 312.980,280.800 313.200 C 280.800 313.420,281.250 313.600,281.800 313.600 C 282.350 313.600,282.800 313.780,282.800 314.000 C 282.800 314.220,283.321 314.400,283.957 314.400 C 284.617 314.400,285.213 314.658,285.345 315.000 C 285.686 315.891,297.114 315.891,297.455 315.000 C 297.597 314.630,298.205 314.400,299.043 314.400 C 299.789 314.400,300.400 314.220,300.400 314.000 C 300.400 313.780,300.760 313.600,301.200 313.600 C 301.640 313.600,302.000 313.420,302.000 313.200 C 302.000 312.980,302.270 312.800,302.600 312.800 C 302.930 312.800,303.200 312.620,303.200 312.400 C 303.200 312.180,303.476 312.000,303.813 312.000 C 304.149 312.000,304.529 311.730,304.655 311.400 C 304.782 311.070,305.052 310.800,305.256 310.800 C 305.763 310.800,308.400 308.127,308.400 307.613 C 308.400 307.386,308.580 307.200,308.800 307.200 C 309.020 307.200,309.200 306.840,309.200 306.400 C 309.200 305.960,309.405 305.600,309.656 305.600 C 310.271 305.600,311.172 304.365,311.187 303.500 C 311.194 303.115,311.380 302.800,311.600 302.800 C 311.820 302.800,312.000 302.260,312.000 301.600 C 312.000 300.940,312.180 300.400,312.400 300.400 C 312.650 300.400,312.800 298.000,312.800 294.000 C 312.800 290.000,312.650 287.600,312.400 287.600 C 312.180 287.600,312.000 287.060,312.000 286.400 C 312.000 285.740,311.820 285.200,311.600 285.200 C 311.380 285.200,311.200 284.750,311.200 284.200 C 311.200 283.650,311.020 283.200,310.800 283.200 C 310.580 283.200,310.400 282.840,310.400 282.400 C 310.400 281.956,310.133 281.600,309.800 281.600 C 309.465 281.600,309.200 281.244,309.200 280.795 C 309.200 279.845,304.740 275.200,303.827 275.200 C 303.482 275.200,303.200 275.020,303.200 274.800 C 303.200 274.580,302.750 274.400,302.200 274.400 C 301.650 274.400,301.200 274.220,301.200 274.000 C 301.200 273.780,300.679 273.600,300.043 273.600 C 299.383 273.600,298.787 273.342,298.655 273.000 C 298.503 272.604,297.877 272.400,296.813 272.400 C 295.926 272.400,295.200 272.220,295.200 272.000 C 295.200 271.780,294.221 271.600,293.024 271.600 C 291.827 271.600,290.736 271.420,290.600 271.200 C 290.464 270.980,289.373 270.800,288.176 270.800 C 286.979 270.800,286.000 270.620,286.000 270.400 C 286.000 270.180,285.010 270.000,283.800 270.000 C 282.590 270.000,281.600 269.820,281.600 269.600 C 281.600 269.380,281.079 269.200,280.443 269.200 C 279.783 269.200,279.187 268.942,279.055 268.600 C 278.929 268.270,278.459 268.000,278.013 268.000 C 277.566 268.000,277.200 267.820,277.200 267.600 C 277.200 267.380,276.851 267.200,276.424 267.200 C 275.997 267.200,275.536 267.020,275.400 266.800 C 275.264 266.580,274.803 266.400,274.376 266.400 C 273.949 266.400,273.600 266.220,273.600 266.000 C 273.600 265.780,273.240 265.600,272.800 265.600 C 272.356 265.600,272.000 265.333,272.000 265.000 C 272.000 264.670,271.802 264.400,271.560 264.400 C 271.060 264.400,267.600 260.850,267.600 260.336 C 267.600 260.151,267.780 260.000,268.000 260.000 C 268.220 260.000,268.400 259.640,268.400 259.200 C 268.400 258.760,268.580 258.400,268.800 258.400 C 269.020 258.400,269.200 258.130,269.200 257.800 C 269.200 257.470,269.380 257.200,269.600 257.200 C 269.820 257.200,270.000 256.840,270.000 256.400 C 270.000 255.960,270.180 255.600,270.400 255.600 C 270.620 255.600,270.800 255.259,270.800 254.843 C 270.800 254.426,271.070 253.982,271.400 253.855 C 271.730 253.729,272.000 253.299,272.000 252.901 C 272.000 252.503,272.360 251.917,272.800 251.600 C 273.240 251.283,273.600 250.613,273.600 250.112 C 273.600 249.610,273.780 249.200,274.000 249.200 C 274.220 249.200,274.400 248.840,274.400 248.400 C 274.400 247.960,274.605 247.600,274.856 247.600 C 275.471 247.600,276.372 246.365,276.387 245.500 C 276.394 245.115,276.580 244.800,276.800 244.800 C 277.020 244.800,277.200 244.522,277.200 244.183 C 277.200 243.843,277.650 243.080,278.200 242.487 C 278.750 241.893,279.200 241.181,279.200 240.904 C 279.200 240.627,279.380 240.400,279.600 240.400 C 279.820 240.400,280.000 240.040,280.000 239.600 C 280.000 239.160,280.180 238.800,280.400 238.800 C 280.620 238.800,280.800 238.612,280.800 238.382 C 280.800 237.839,282.639 236.000,283.182 236.000 C 283.412 236.000,283.600 235.820,283.600 235.600 C 283.600 235.380,283.960 235.200,284.400 235.200 C 284.840 235.200,285.200 235.020,285.200 234.800 C 285.200 234.571,286.400 234.400,288.000 234.400 C 289.600 234.400,290.800 234.571,290.800 234.800 C 290.800 235.020,291.610 235.200,292.600 235.200 C 293.590 235.200,294.400 235.380,294.400 235.600 C 294.400 235.820,294.940 236.000,295.600 236.000 C 296.260 236.000,296.800 236.180,296.800 236.400 C 296.800 236.620,297.610 236.800,298.600 236.800 C 299.590 236.800,300.400 236.980,300.400 237.200 C 300.400 237.420,301.011 237.600,301.757 237.600 C 302.595 237.600,303.203 237.830,303.345 238.200 C 303.479 238.551,304.079 238.800,304.787 238.800 C 305.454 238.800,306.000 238.980,306.000 239.200 C 306.000 239.420,306.360 239.600,306.800 239.600 C 307.240 239.600,307.600 239.780,307.600 240.000 C 307.600 240.220,308.050 240.400,308.600 240.400 C 309.150 240.400,309.600 240.580,309.600 240.800 C 309.600 241.020,309.941 241.200,310.357 241.200 C 310.774 241.200,311.218 241.470,311.345 241.800 C 311.471 242.130,311.851 242.400,312.187 242.400 C 312.524 242.400,312.800 242.580,312.800 242.800 C 312.800 243.020,313.070 243.200,313.400 243.200 C 313.730 243.200,314.000 243.380,314.000 243.600 C 314.000 243.820,314.266 244.000,314.592 244.000 C 315.291 244.000,323.600 252.150,323.600 252.835 C 323.600 253.094,324.230 253.900,325.000 254.626 C 325.770 255.352,326.400 256.140,326.400 256.377 C 326.400 257.084,328.482 259.200,329.178 259.200 C 329.533 259.200,330.083 259.560,330.400 260.000 C 330.717 260.440,331.278 260.800,331.646 260.800 C 332.013 260.800,332.418 261.070,332.545 261.400 C 332.671 261.730,333.141 262.000,333.587 262.000 C 334.034 262.000,334.400 262.180,334.400 262.400 C 334.400 262.620,334.749 262.800,335.176 262.800 C 335.603 262.800,336.064 262.980,336.200 263.200 C 336.350 263.442,339.204 263.600,343.424 263.600 C 347.808 263.600,350.400 263.451,350.400 263.200 C 350.400 262.980,350.850 262.800,351.400 262.800 C 351.950 262.800,352.400 262.620,352.400 262.400 C 352.400 262.180,352.760 262.000,353.200 262.000 C 353.644 262.000,354.000 261.733,354.000 261.400 C 354.000 261.027,354.378 260.800,355.000 260.800 C 355.550 260.800,356.000 260.620,356.000 260.400 C 356.000 260.180,356.274 260.000,356.609 260.000 C 357.365 260.000,361.200 256.256,361.200 255.518 C 361.200 255.220,361.560 254.717,362.000 254.400 C 362.440 254.083,362.800 253.432,362.800 252.954 C 362.800 252.477,363.070 251.982,363.400 251.855 C 363.751 251.721,364.000 251.121,364.000 250.413 C 364.000 249.746,364.180 249.200,364.400 249.200 C 364.620 249.200,364.800 248.390,364.800 247.400 C 364.800 246.410,364.980 245.600,365.200 245.600 C 365.426 245.600,365.600 244.467,365.600 243.000 C 365.600 241.533,365.426 240.400,365.200 240.400 C 364.980 240.400,364.800 239.410,364.800 238.200 C 364.800 236.990,364.620 236.000,364.400 236.000 C 364.180 236.000,364.000 235.454,364.000 234.787 C 364.000 234.079,363.751 233.479,363.400 233.345 C 363.070 233.218,362.800 232.813,362.800 232.446 C 362.800 232.078,362.440 231.517,362.000 231.200 C 361.560 230.883,361.194 230.348,361.187 230.012 C 361.173 229.344,360.274 228.000,359.842 228.000 C 359.693 228.000,359.173 227.632,358.686 227.182 C 356.646 225.299,355.358 224.401,354.700 224.400 C 354.315 224.400,354.000 224.220,354.000 224.000 C 354.000 223.780,353.640 223.600,353.200 223.600 C 352.760 223.600,352.400 223.420,352.400 223.200 C 352.400 222.980,351.950 222.800,351.400 222.800 C 350.778 222.800,350.400 222.573,350.400 222.200 C 350.400 221.739,349.889 221.600,348.200 221.600 C 346.990 221.600,346.000 221.420,346.000 221.200 C 346.000 220.974,344.867 220.800,343.400 220.800 C 341.933 220.800,340.800 220.974,340.800 221.200 C 340.800 221.420,339.829 221.600,338.643 221.600 C 337.094 221.600,336.421 221.769,336.255 222.200 C 336.129 222.530,335.659 222.800,335.213 222.800 C 334.766 222.800,334.400 222.980,334.400 223.200 C 334.400 223.420,333.770 223.600,333.000 223.600 C 332.230 223.600,331.600 223.780,331.600 224.000 C 331.600 224.220,331.240 224.400,330.800 224.400 C 330.360 224.400,330.000 224.580,330.000 224.800 C 330.000 225.020,329.370 225.200,328.600 225.200 C 327.830 225.200,327.200 225.380,327.200 225.600 C 327.200 225.820,326.763 226.000,326.229 226.000 C 325.694 226.000,324.987 226.270,324.657 226.600 C 324.282 226.976,323.298 227.200,322.029 227.200 C 320.913 227.200,320.000 227.380,320.000 227.600 C 320.000 227.847,317.933 228.000,314.600 228.000 C 311.267 228.000,309.200 227.847,309.200 227.600 C 309.200 227.380,308.229 227.200,307.043 227.200 C 305.494 227.200,304.821 227.031,304.655 226.600 C 304.521 226.249,303.921 226.000,303.213 226.000 C 302.546 226.000,302.000 225.820,302.000 225.600 C 302.000 225.380,301.291 225.200,300.424 225.200 C 299.557 225.200,298.736 225.020,298.600 224.800 C 298.464 224.580,297.823 224.400,297.176 224.400 C 296.529 224.400,296.000 224.220,296.000 224.000 C 296.000 223.780,295.190 223.600,294.200 223.600 C 293.210 223.600,292.400 223.420,292.400 223.200 C 292.400 222.980,292.137 222.800,291.816 222.800 C 291.046 222.800,288.000 219.798,288.000 219.039 C 288.000 218.714,287.820 218.336,287.600 218.200 C 286.712 217.651,287.099 202.000,288.000 202.000 C 288.440 202.000,288.800 202.180,288.800 202.400 C 288.800 202.620,289.430 202.800,290.200 202.800 C 291.178 202.800,291.600 202.981,291.600 203.400 C 291.600 203.872,292.156 204.000,294.200 204.000 C 295.667 204.000,296.800 204.174,296.800 204.400 C 296.800 204.633,298.133 204.800,300.000 204.800 C 301.867 204.800,303.200 204.633,303.200 204.400 C 303.200 204.180,304.106 204.000,305.213 204.000 C 306.632 204.000,307.293 203.823,307.455 203.400 C 307.582 203.070,308.026 202.800,308.443 202.800 C 308.859 202.800,309.200 202.620,309.200 202.400 C 309.200 202.180,309.566 202.000,310.014 202.000 C 310.488 202.000,311.992 200.836,313.614 199.214 C 315.236 197.592,316.400 196.088,316.400 195.614 C 316.400 195.166,316.593 194.800,316.829 194.800 C 317.641 194.800,318.400 193.654,318.400 192.429 C 318.400 191.753,318.580 191.200,318.800 191.200 C 319.020 191.200,319.200 190.660,319.200 190.000 C 319.200 189.340,319.380 188.800,319.600 188.800 C 319.848 188.800,320.000 186.600,320.000 183.000 C 320.000 179.400,319.848 177.200,319.600 177.200 C 319.380 177.200,319.200 176.570,319.200 175.800 C 319.200 175.030,319.020 174.400,318.800 174.400 C 318.580 174.400,318.400 174.040,318.400 173.600 C 318.400 173.160,318.220 172.800,318.000 172.800 C 317.780 172.800,317.600 172.434,317.600 171.987 C 317.600 171.541,317.330 171.071,317.000 170.945 C 316.670 170.818,316.400 170.413,316.400 170.046 C 316.400 169.678,316.040 169.117,315.600 168.800 C 315.160 168.483,314.800 168.024,314.800 167.779 C 314.800 167.535,314.350 167.094,313.800 166.800 C 313.250 166.506,312.800 166.115,312.800 165.932 C 312.800 165.750,312.483 165.600,312.095 165.600 C 311.707 165.600,311.052 165.150,310.639 164.600 C 310.226 164.050,309.553 163.600,309.144 163.600 C 308.735 163.600,308.400 163.420,308.400 163.200 C 308.400 162.980,308.040 162.800,307.600 162.800 C 307.160 162.800,306.800 162.620,306.800 162.400 C 306.800 162.180,305.990 162.000,305.000 162.000 C 304.010 162.000,303.200 161.820,303.200 161.600 C 303.200 161.355,301.267 161.200,298.200 161.200 C 295.133 161.200,293.200 161.355,293.200 161.600 C 293.200 161.820,292.491 162.000,291.624 162.000 C 290.757 162.000,289.936 162.180,289.800 162.400 C 289.664 162.620,289.203 162.800,288.776 162.800 C 288.349 162.800,288.000 162.980,288.000 163.200 C 288.000 163.420,287.727 163.600,287.393 163.600 C 287.059 163.600,286.174 164.230,285.426 165.000 C 284.679 165.770,283.858 166.400,283.603 166.400 C 282.914 166.400,280.800 168.640,280.800 169.369 C 280.800 169.733,280.462 170.000,280.000 170.000 C 279.482 170.000,279.200 169.733,279.200 169.243 C 279.200 168.826,278.930 168.382,278.600 168.255 C 278.270 168.129,278.000 167.699,278.000 167.301 C 278.000 166.903,277.640 166.317,277.200 166.000 C 276.760 165.683,276.394 165.148,276.387 164.812 C 276.371 164.020,275.442 162.800,274.856 162.800 C 274.605 162.800,274.400 162.440,274.400 162.000 C 274.400 161.560,274.220 161.200,274.000 161.200 C 273.780 161.200,273.600 160.790,273.600 160.288 C 273.600 159.787,273.240 159.117,272.800 158.800 C 272.360 158.483,272.000 157.903,272.000 157.512 C 272.000 157.120,271.730 156.800,271.400 156.800 C 271.070 156.800,270.800 156.530,270.800 156.200 C 270.800 155.870,270.620 155.600,270.400 155.600 C 270.180 155.600,270.000 155.280,270.000 154.888 C 270.000 154.497,269.640 153.917,269.200 153.600 C 268.760 153.283,268.400 152.690,268.400 152.283 C 268.400 151.876,268.130 151.273,267.800 150.943 C 266.720 149.863,268.465 146.800,270.160 146.800 C 270.512 146.800,270.800 146.620,270.800 146.400 C 270.800 146.180,271.070 146.000,271.400 146.000 C 271.730 146.000,272.000 145.807,272.000 145.571 C 272.000 144.934,273.053 144.000,273.771 144.000 C 274.117 144.000,274.400 143.820,274.400 143.600 C 274.400 143.380,274.850 143.200,275.400 143.200 C 275.950 143.200,276.400 143.020,276.400 142.800 C 276.400 142.580,276.760 142.400,277.200 142.400 C 277.640 142.400,278.000 142.220,278.000 142.000 C 278.000 141.780,278.366 141.600,278.813 141.600 C 279.259 141.600,279.729 141.330,279.855 141.000 C 279.987 140.658,280.583 140.400,281.243 140.400 C 281.879 140.400,282.400 140.220,282.400 140.000 C 282.400 139.780,283.379 139.600,284.576 139.600 C 285.773 139.600,286.864 139.420,287.000 139.200 C 287.136 138.980,288.227 138.800,289.424 138.800 C 290.621 138.800,291.600 138.620,291.600 138.400 C 291.600 138.169,292.867 138.000,294.600 138.000 C 297.000 138.000,297.600 137.880,297.600 137.400 C 297.600 136.981,298.022 136.800,299.000 136.800 C 299.770 136.800,300.400 136.620,300.400 136.400 C 300.400 136.180,300.850 136.000,301.400 136.000 C 301.950 136.000,302.400 135.820,302.400 135.600 C 302.400 135.380,302.683 135.200,303.029 135.200 C 303.747 135.200,304.800 134.266,304.800 133.629 C 304.800 133.393,304.986 133.200,305.213 133.200 C 305.751 133.200,308.400 130.551,308.400 130.013 C 308.400 129.786,308.580 129.600,308.800 129.600 C 309.020 129.600,309.200 129.240,309.200 128.800 C 309.200 128.356,309.467 128.000,309.800 128.000 C 310.130 128.000,310.400 127.651,310.400 127.224 C 310.400 126.797,310.580 126.336,310.800 126.200 C 311.020 126.064,311.200 125.423,311.200 124.776 C 311.200 124.129,311.380 123.600,311.600 123.600 C 311.820 123.600,312.000 122.610,312.000 121.400 C 312.000 120.190,312.180 119.200,312.400 119.200 C 312.633 119.200,312.800 117.867,312.800 116.000 C 312.800 114.133,312.633 112.800,312.400 112.800 C 312.180 112.800,312.000 111.810,312.000 110.600 C 312.000 109.390,311.820 108.400,311.600 108.400 C 311.380 108.400,311.200 108.040,311.200 107.600 C 311.200 107.160,311.020 106.800,310.800 106.800 C 310.580 106.800,310.400 106.465,310.400 106.056 C 310.400 105.647,309.950 104.974,309.400 104.561 C 308.850 104.148,308.400 103.520,308.400 103.164 C 308.400 102.459,306.799 100.663,305.046 99.400 C 304.435 98.960,303.455 98.195,302.868 97.700 C 302.280 97.206,301.485 96.801,301.100 96.800 C 300.715 96.800,300.400 96.620,300.400 96.400 C 300.400 96.180,300.040 96.000,299.600 96.000 C 299.160 96.000,298.800 95.820,298.800 95.600 C 298.800 95.380,298.009 95.200,297.043 95.200 C 295.850 95.200,295.212 95.007,295.055 94.600 C 294.873 94.125,294.032 94.000,291.013 94.000 C 287.890 94.000,287.200 94.109,287.200 94.600 C 287.200 95.044,286.733 95.200,285.400 95.200 C 284.410 95.200,283.600 95.380,283.600 95.600 C 283.600 95.820,282.970 96.000,282.200 96.000 C 281.430 96.000,280.800 96.180,280.800 96.400 C 280.800 96.620,280.440 96.800,280.000 96.800 C 279.560 96.800,279.200 96.980,279.200 97.200 C 279.200 97.420,278.883 97.600,278.496 97.600 C 278.109 97.600,277.254 98.226,276.596 98.991 C 275.938 99.757,275.257 100.387,275.082 100.391 C 274.608 100.404,272.800 102.299,272.800 102.782 C 272.800 103.012,272.620 103.200,272.400 103.200 C 272.180 103.200,272.000 103.560,272.000 104.000 C 272.000 104.440,271.823 104.800,271.608 104.800 C 271.392 104.800,271.102 105.250,270.964 105.800 C 270.826 106.350,270.553 106.800,270.357 106.800 C 270.160 106.800,270.000 107.329,270.000 107.976 C 270.000 108.623,269.820 109.264,269.600 109.400 C 269.380 109.536,269.200 110.987,269.200 112.624 C 269.200 114.341,269.031 115.600,268.800 115.600 C 268.574 115.600,268.400 116.733,268.400 118.200 C 268.400 119.667,268.226 120.800,268.000 120.800 C 267.780 120.800,267.600 121.610,267.600 122.600 C 267.600 123.933,267.444 124.400,267.000 124.400 C 266.581 124.400,266.400 124.822,266.400 125.800 C 266.400 126.570,266.220 127.200,266.000 127.200 C 265.780 127.200,265.600 127.560,265.600 128.000 C 265.600 128.440,265.420 128.800,265.200 128.800 C 264.980 128.800,264.800 129.250,264.800 129.800 C 264.800 130.350,264.620 130.800,264.400 130.800 C 264.180 130.800,264.000 131.141,264.000 131.557 C 264.000 131.974,263.730 132.418,263.400 132.545 C 263.070 132.671,262.800 133.068,262.800 133.427 C 262.800 133.786,262.260 134.583,261.600 135.200 C 260.940 135.817,260.400 136.699,260.400 137.160 C 260.400 137.622,260.170 138.000,259.888 138.000 C 259.607 138.000,259.117 138.360,258.800 138.800 C 258.206 139.624,256.000 139.939,256.000 139.200 C 256.000 138.980,255.730 138.800,255.400 138.800 C 255.070 138.800,254.800 138.620,254.800 138.400 C 254.800 138.180,254.459 138.000,254.043 138.000 C 253.626 138.000,253.182 137.730,253.055 137.400 C 252.929 137.070,252.499 136.800,252.101 136.800 C 251.703 136.800,251.117 136.440,250.800 136.000 C 250.483 135.560,249.903 135.200,249.512 135.200 C 249.120 135.200,248.800 135.020,248.800 134.800 C 248.800 134.580,248.612 134.400,248.383 134.400 C 248.154 134.400,247.749 134.216,247.483 133.992 C 245.190 132.056,244.508 131.601,243.900 131.600 C 243.515 131.600,243.200 131.420,243.200 131.200 C 243.200 130.980,242.883 130.800,242.495 130.800 C 242.107 130.800,241.452 130.350,241.039 129.800 C 240.626 129.250,240.035 128.800,239.726 128.800 C 238.918 128.800,236.900 126.700,237.511 126.496 C 237.780 126.407,238.005 126.123,238.011 125.867 C 238.017 125.610,238.827 124.696,239.811 123.835 C 240.795 122.974,241.600 121.979,241.600 121.623 C 241.600 121.268,241.960 120.717,242.400 120.400 C 242.920 120.025,243.200 119.365,243.200 118.512 C 243.200 117.790,243.380 117.200,243.600 117.200 C 243.820 117.200,244.000 116.679,244.000 116.043 C 244.000 115.383,244.258 114.787,244.600 114.655 C 245.097 114.465,245.200 113.387,245.200 108.400 C 245.200 103.413,245.097 102.335,244.600 102.145 C 244.258 102.013,244.000 101.417,244.000 100.757 C 244.000 100.121,243.820 99.600,243.600 99.600 C 243.380 99.600,243.200 99.150,243.200 98.600 C 243.200 98.050,243.020 97.600,242.800 97.600 C 242.580 97.600,242.400 97.280,242.400 96.888 C 242.400 96.497,242.040 95.917,241.600 95.600 C 241.160 95.283,240.800 94.779,240.800 94.480 C 240.800 93.773,237.427 90.400,236.720 90.400 C 236.421 90.400,235.917 90.040,235.600 89.600 C 235.283 89.160,234.703 88.800,234.312 88.800 C 233.920 88.800,233.600 88.620,233.600 88.400 C 233.600 88.180,232.985 88.000,232.233 88.000 C 231.482 88.000,230.795 87.786,230.708 87.524 C 230.614 87.243,229.450 86.977,227.875 86.877 C 226.404 86.783,225.200 86.548,225.200 86.353 C 225.200 86.159,224.660 86.000,224.000 86.000 C 223.340 86.000,222.800 86.180,222.800 86.400 C 222.800 86.620,221.823 86.800,220.629 86.800 C 219.232 86.800,218.243 87.014,217.857 87.400 C 217.527 87.730,216.704 88.000,216.029 88.000 C 215.353 88.000,214.800 88.180,214.800 88.400 C 214.800 88.620,214.474 88.800,214.075 88.800 C 213.677 88.800,212.964 89.160,212.492 89.600 C 212.020 90.040,211.356 90.400,211.017 90.400 C 210.678 90.400,210.400 90.670,210.400 91.000 C 210.400 91.330,210.214 91.600,209.987 91.600 C 209.550 91.600,206.800 94.202,206.800 94.615 C 206.800 95.018,205.686 96.000,205.229 96.000 C 204.993 96.000,204.800 96.360,204.800 96.800 C 204.800 97.240,204.620 97.600,204.400 97.600 C 204.180 97.600,204.000 98.230,204.000 99.000 C 204.000 99.770,203.820 100.400,203.600 100.400 C 203.348 100.400,203.200 103.067,203.200 107.600 C 203.200 112.133,203.348 114.800,203.600 114.800 C 203.820 114.800,204.000 115.509,204.000 116.376 C 204.000 117.243,204.180 118.064,204.400 118.200 C 206.163 119.290,204.743 120.000,200.800 120.000 C 198.400 120.000,196.800 120.160,196.800 120.400 C 196.800 121.226,191.827 120.871,191.200 120.000 C 190.883 119.560,190.393 119.200,190.112 119.200 C 189.772 119.200,189.600 118.595,189.600 117.400 C 189.600 116.410,189.420 115.600,189.200 115.600 C 188.980 115.600,188.800 114.790,188.800 113.800 C 188.800 112.810,188.620 112.000,188.400 112.000 C 188.180 112.000,188.000 111.190,188.000 110.200 C 188.000 109.210,187.820 108.400,187.600 108.400 C 187.369 108.400,187.200 107.129,187.200 105.387 C 187.200 103.079,187.060 102.321,186.600 102.145 C 186.171 101.980,186.000 101.310,186.000 99.800 C 186.000 98.290,186.171 97.620,186.600 97.455 C 187.054 97.281,187.200 96.546,187.200 94.436 C 187.200 92.902,187.380 91.536,187.600 91.400 C 187.820 91.264,188.000 90.443,188.000 89.576 C 188.000 88.709,188.180 88.000,188.400 88.000 C 188.620 88.000,188.800 87.550,188.800 87.000 C 188.800 86.450,188.980 86.000,189.200 86.000 C 189.420 86.000,189.600 85.479,189.600 84.843 C 189.600 84.183,189.858 83.587,190.200 83.455 C 190.530 83.329,190.800 82.859,190.800 82.413 C 190.800 81.966,190.980 81.600,191.200 81.600 C 191.420 81.600,191.600 81.240,191.600 80.800 C 191.600 80.360,191.780 80.000,192.000 80.000 C 192.220 80.000,192.400 79.370,192.400 78.600 C 192.400 77.830,192.580 77.200,192.800 77.200 C 193.047 77.200,193.200 75.133,193.200 71.800 C 193.200 68.467,193.047 66.400,192.800 66.400 C 192.580 66.400,192.400 65.860,192.400 65.200 C 192.400 64.540,192.220 64.000,192.000 64.000 C 191.780 64.000,191.600 63.550,191.600 63.000 C 191.600 62.450,191.420 62.000,191.200 62.000 C 190.980 62.000,190.800 61.640,190.800 61.200 C 190.800 60.756,190.533 60.400,190.200 60.400 C 189.864 60.400,189.600 60.043,189.600 59.588 C 189.600 58.636,185.136 54.000,184.220 54.000 C 183.879 54.000,183.600 53.820,183.600 53.600 C 183.600 53.380,183.330 53.200,183.000 53.200 C 182.670 53.200,182.400 53.020,182.400 52.800 C 182.400 52.580,182.059 52.400,181.643 52.400 C 181.226 52.400,180.782 52.130,180.655 51.800 C 180.521 51.449,179.921 51.200,179.213 51.200 C 178.546 51.200,178.000 51.020,178.000 50.800 C 178.000 50.551,175.667 50.400,171.800 50.400 C 167.933 50.400,165.600 50.551,165.600 50.800 M214.400 154.841 C 216.710 155.296,219.276 155.762,220.103 155.876 C 220.929 155.991,221.705 156.245,221.826 156.442 C 221.948 156.639,222.399 156.800,222.829 156.800 C 223.259 156.800,223.923 156.974,224.305 157.187 C 224.687 157.399,226.170 158.106,227.600 158.756 C 232.416 160.948,239.364 166.392,242.203 170.200 C 242.859 171.080,243.505 171.890,243.638 172.000 C 245.326 173.392,246.515 177.600,245.221 177.600 C 245.021 177.600,244.619 177.831,244.329 178.113 C 244.038 178.396,242.270 179.692,240.400 180.994 C 238.530 182.296,236.910 183.474,236.800 183.613 C 236.690 183.751,234.440 185.365,231.800 187.200 C 229.160 189.035,226.908 190.671,226.796 190.836 C 225.843 192.239,224.531 191.603,222.848 188.924 C 221.897 187.409,220.397 185.670,219.469 185.006 C 218.551 184.349,217.496 183.554,217.125 183.239 C 214.265 180.809,201.456 178.384,199.868 179.972 C 199.632 180.208,199.031 180.400,198.531 180.400 C 197.556 180.400,193.088 182.359,192.867 182.884 C 192.793 183.058,192.523 183.202,192.267 183.205 C 191.859 183.210,187.731 187.305,186.585 188.843 C 185.733 189.985,183.200 195.619,183.200 196.372 C 183.200 196.801,183.042 197.251,182.849 197.370 C 181.639 198.118,181.646 213.087,182.857 213.835 C 183.045 213.952,183.200 214.474,183.200 214.996 C 183.200 218.032,187.671 224.497,191.713 227.307 C 194.207 229.041,195.005 229.467,197.594 230.447 C 199.458 231.153,210.175 231.185,210.872 230.488 C 211.141 230.219,211.670 230.000,212.048 230.000 C 214.873 230.000,220.683 225.333,222.768 221.389 C 224.109 218.852,226.184 218.924,228.800 221.597 C 228.910 221.709,229.540 222.069,230.200 222.397 C 230.860 222.724,232.351 223.589,233.514 224.317 C 234.676 225.046,236.656 226.198,237.914 226.877 C 239.171 227.556,240.484 228.357,240.831 228.656 C 241.179 228.955,241.659 229.200,241.898 229.200 C 242.138 229.200,242.393 229.335,242.467 229.500 C 242.540 229.665,243.500 230.270,244.600 230.845 C 247.245 232.227,247.370 233.270,245.313 236.781 C 242.879 240.933,234.050 249.200,232.049 249.200 C 231.802 249.200,231.600 249.336,231.600 249.502 C 231.600 249.669,231.015 250.057,230.300 250.365 C 229.585 250.673,228.111 251.347,227.025 251.863 C 225.939 252.378,224.735 252.800,224.349 252.800 C 223.963 252.800,223.536 252.980,223.400 253.200 C 223.264 253.420,222.749 253.600,222.256 253.600 C 221.763 253.600,221.189 253.746,220.980 253.924 C 220.593 254.255,216.551 255.194,212.176 255.970 C 209.029 256.528,198.934 256.524,195.824 255.963 C 192.960 255.446,189.157 254.367,188.620 253.918 C 188.411 253.743,187.914 253.600,187.515 253.600 C 187.116 253.600,186.477 253.438,186.095 253.239 C 185.713 253.041,184.230 252.321,182.800 251.640 C 179.667 250.147,177.847 249.105,177.667 248.700 C 177.593 248.535,177.321 248.400,177.063 248.400 C 176.804 248.400,176.144 247.995,175.596 247.500 C 175.048 247.005,173.970 246.123,173.200 245.539 C 170.220 243.282,163.200 235.680,163.200 234.712 C 163.200 234.522,162.857 233.999,162.439 233.549 C 161.460 232.499,156.794 223.214,156.798 222.324 C 156.799 221.952,156.620 221.536,156.400 221.400 C 156.180 221.264,156.000 220.634,156.000 220.000 C 156.000 219.366,155.820 218.736,155.600 218.600 C 155.380 218.464,155.200 217.821,155.200 217.171 C 155.200 216.521,155.033 215.677,154.828 215.295 C 152.741 211.395,152.761 193.733,154.856 191.420 C 155.045 191.211,155.200 190.547,155.200 189.944 C 155.200 189.341,155.380 188.736,155.600 188.600 C 155.820 188.464,156.000 188.001,156.000 187.571 C 156.000 187.141,156.167 186.477,156.372 186.095 C 156.576 185.713,157.483 183.843,158.387 181.939 C 159.965 178.617,162.162 175.147,162.865 174.867 C 163.049 174.793,163.200 174.493,163.200 174.200 C 163.200 173.907,163.338 173.607,163.508 173.533 C 163.677 173.460,164.622 172.434,165.608 171.253 C 170.070 165.908,183.881 156.800,187.525 156.800 C 187.980 156.800,188.452 156.640,188.573 156.444 C 188.694 156.249,189.379 155.990,190.096 155.870 C 190.813 155.750,193.110 155.303,195.200 154.876 C 200.645 153.765,208.864 153.750,214.400 154.841 " stroke="none" fill="#ec3424" fill-rule="evenodd"></path><path id="path2" d="M197.600 155.041 L 194.200 155.561 197.600 155.281 C 199.470 155.126,203.430 155.014,206.400 155.030 C 210.049 155.051,211.216 154.963,210.000 154.760 C 207.341 154.316,201.472 154.449,197.600 155.041 M214.000 155.610 C 219.650 156.395,219.904 156.409,217.400 155.810 C 216.080 155.494,214.280 155.251,213.400 155.270 C 211.976 155.301,212.042 155.338,214.000 155.610 M191.600 156.000 C 190.233 156.288,190.228 156.295,191.400 156.319 C 192.060 156.333,192.960 156.189,193.400 156.000 C 194.362 155.587,193.564 155.587,191.600 156.000 M220.200 156.800 C 220.336 157.020,220.842 157.187,221.324 157.172 C 222.169 157.145,222.171 157.131,221.400 156.800 C 220.299 156.327,219.908 156.327,220.200 156.800 M183.285 158.871 C 182.342 159.329,181.649 159.782,181.746 159.879 C 181.843 159.976,182.794 159.601,183.861 159.046 C 186.190 157.834,185.719 157.691,183.285 158.871 M224.800 158.181 C 224.800 158.385,228.364 160.010,228.751 159.982 C 229.067 159.959,225.504 158.042,225.100 158.018 C 224.935 158.008,224.800 158.082,224.800 158.181 M229.400 160.289 C 229.620 160.502,231.152 161.597,232.805 162.722 C 235.902 164.831,240.583 169.055,241.731 170.776 C 242.089 171.313,242.470 171.664,242.578 171.556 C 243.007 171.126,237.823 165.949,234.514 163.503 C 231.357 161.169,228.367 159.290,229.400 160.289 M176.251 162.792 C 174.573 163.887,173.200 164.874,173.200 164.984 C 173.200 165.184,178.664 161.788,179.380 161.143 C 180.322 160.294,179.056 160.961,176.251 162.792 M171.012 166.648 C 170.139 167.434,169.147 168.285,168.807 168.539 C 167.162 169.768,160.298 178.400,160.966 178.400 C 161.078 178.400,161.931 177.275,162.862 175.900 C 163.792 174.525,166.428 171.555,168.720 169.300 C 172.963 165.125,173.871 164.074,171.012 166.648 M244.853 175.357 C 245.310 176.360,245.255 176.532,244.175 177.458 L 243.000 178.466 244.300 177.606 C 245.707 176.675,245.965 175.601,244.978 174.782 C 244.423 174.321,244.410 174.384,244.853 175.357 M203.105 179.083 C 203.602 179.179,204.322 179.175,204.705 179.075 C 205.087 178.975,204.680 178.896,203.800 178.901 C 202.920 178.905,202.607 178.987,203.105 179.083 M198.000 179.600 C 197.236 180.094,198.058 180.094,199.600 179.600 L 200.600 179.280 199.600 179.246 C 199.050 179.227,198.330 179.387,198.000 179.600 M207.233 179.344 C 207.325 179.423,208.300 179.601,209.400 179.741 C 210.765 179.914,211.210 179.870,210.800 179.603 C 210.259 179.250,206.836 179.001,207.233 179.344 M237.600 182.027 C 232.370 185.885,231.309 186.777,234.465 184.662 C 238.220 182.145,239.622 181.133,240.781 180.100 C 242.580 178.498,241.484 179.162,237.600 182.027 M159.186 181.101 C 158.345 182.787,158.340 182.800,158.547 182.800 C 158.805 182.800,160.042 180.308,159.869 180.136 C 159.795 180.062,159.488 180.496,159.186 181.101 M195.200 180.600 C 193.894 181.347,194.351 181.355,196.054 180.616 C 196.794 180.294,197.130 180.031,196.800 180.030 C 196.470 180.029,195.750 180.286,195.200 180.600 M212.000 180.268 C 214.628 181.164,218.651 183.508,220.170 185.027 C 220.517 185.374,220.800 185.501,220.800 185.311 C 220.800 184.327,213.534 179.955,212.025 180.032 C 211.488 180.059,211.485 180.092,212.000 180.268 M193.000 181.676 C 191.957 182.265,189.864 184.000,190.196 184.000 C 190.424 184.000,192.769 182.379,193.780 181.522 C 194.314 181.070,193.945 181.142,193.000 181.676 M188.339 185.500 C 187.783 186.105,186.930 187.230,186.442 188.000 L 185.556 189.400 186.478 188.206 C 186.985 187.550,187.967 186.425,188.660 185.706 C 189.353 184.988,189.792 184.400,189.635 184.400 C 189.478 184.400,188.895 184.895,188.339 185.500 M230.200 187.423 C 229.454 188.056,229.315 188.291,229.833 188.043 C 230.576 187.687,231.925 186.397,231.549 186.402 C 231.467 186.403,230.860 186.863,230.200 187.423 M223.067 188.202 C 223.470 188.863,223.993 189.752,224.229 190.178 C 224.464 190.604,224.914 191.019,225.229 191.099 C 225.560 191.185,225.506 191.060,225.100 190.803 C 224.715 190.560,224.399 190.144,224.398 189.880 C 224.397 189.616,223.932 188.860,223.365 188.200 L 222.334 187.000 223.067 188.202 M227.185 189.632 L 225.800 190.863 227.088 190.013 C 228.230 189.259,229.093 188.400,228.708 188.400 C 228.632 188.400,227.947 188.954,227.185 189.632 M155.246 191.267 C 155.221 191.634,155.096 192.264,154.970 192.667 C 154.752 193.362,154.763 193.363,155.197 192.687 C 155.448 192.296,155.573 191.666,155.473 191.287 C 155.311 190.668,155.288 190.666,155.246 191.267 M184.010 191.898 C 183.060 193.915,181.999 196.981,182.041 197.594 C 182.064 197.927,182.387 197.300,182.761 196.200 C 183.134 195.100,183.748 193.497,184.125 192.639 C 184.905 190.863,184.804 190.215,184.010 191.898 M154.493 194.800 C 154.493 195.570,154.575 195.885,154.676 195.500 C 154.776 195.115,154.776 194.485,154.676 194.100 C 154.575 193.715,154.493 194.030,154.493 194.800 M153.876 197.210 C 153.730 197.755,153.628 198.740,153.649 199.400 C 153.680 200.357,153.759 200.236,154.042 198.800 C 154.429 196.833,154.302 195.617,153.876 197.210 M181.449 199.815 C 181.312 200.173,181.220 201.036,181.244 201.733 C 181.282 202.837,181.333 202.771,181.636 201.225 C 181.993 199.405,181.894 198.657,181.449 199.815 M153.725 208.000 C 154.386 211.883,154.808 213.911,155.181 215.000 L 155.592 216.200 155.424 215.000 C 155.044 212.285,153.953 207.021,153.728 206.818 C 153.595 206.698,153.594 207.230,153.725 208.000 M181.206 209.633 C 181.209 210.385,181.377 211.261,181.579 211.579 C 181.816 211.954,181.865 211.530,181.718 210.379 C 181.435 208.170,181.198 207.825,181.206 209.633 M182.000 214.110 C 182.000 214.683,182.187 215.268,182.416 215.410 C 182.689 215.579,182.738 215.277,182.560 214.534 C 182.192 213.001,182.000 212.856,182.000 214.110 M182.834 216.513 C 182.763 217.997,187.128 225.200,188.098 225.200 C 188.282 225.200,187.965 224.705,187.393 224.100 C 186.200 222.837,183.689 218.525,183.200 216.899 C 183.001 216.238,182.855 216.084,182.834 216.513 M155.844 217.800 C 156.173 219.271,156.402 219.590,156.394 218.567 C 156.391 218.145,156.205 217.530,155.982 217.200 C 155.685 216.762,155.648 216.924,155.844 217.800 M156.412 220.000 C 156.412 220.330,156.587 220.870,156.800 221.200 C 157.145 221.733,157.188 221.733,157.188 221.200 C 157.188 220.870,157.013 220.330,156.800 220.000 C 156.455 219.467,156.412 219.467,156.412 220.000 M223.164 221.484 C 222.634 222.522,221.125 224.548,219.811 225.986 C 218.497 227.424,217.951 228.150,218.599 227.600 C 221.160 225.425,224.871 220.338,224.307 219.774 C 224.209 219.675,223.694 220.445,223.164 221.484 M224.973 219.956 C 225.188 220.304,229.348 222.839,230.200 223.141 C 230.876 223.381,229.113 222.162,226.873 220.842 C 225.703 220.153,224.848 219.754,224.973 219.956 M157.214 222.254 C 157.206 222.504,157.469 223.224,157.798 223.854 C 158.126 224.484,158.390 224.730,158.383 224.400 C 158.369 223.683,157.235 221.600,157.214 222.254 M232.000 224.135 C 232.000 224.406,234.874 226.059,235.046 225.887 C 235.126 225.808,234.473 225.339,233.596 224.846 C 232.718 224.352,232.000 224.033,232.000 224.135 M158.679 225.900 C 158.967 226.694,160.000 228.297,160.000 227.950 C 160.000 227.602,158.763 225.200,158.583 225.200 C 158.496 225.200,158.539 225.515,158.679 225.900 M190.269 227.317 C 191.655 228.441,193.474 229.600,193.852 229.600 C 194.006 229.600,193.105 228.880,191.849 228.000 C 189.340 226.243,188.493 225.877,190.269 227.317 M238.000 227.760 C 238.000 227.969,240.763 229.600,241.116 229.600 C 241.264 229.600,240.723 229.150,239.914 228.600 C 238.497 227.637,238.000 227.419,238.000 227.760 M214.800 229.438 C 213.810 229.963,213.220 230.394,213.488 230.396 C 213.908 230.399,216.684 229.012,217.167 228.557 C 217.612 228.137,216.412 228.584,214.800 229.438 M194.400 229.800 C 194.400 230.119,197.178 231.274,197.604 231.132 C 197.843 231.052,197.220 230.684,196.219 230.313 C 195.219 229.942,194.400 229.711,194.400 229.800 M242.400 230.364 C 242.950 230.814,243.580 231.183,243.800 231.185 C 244.228 231.188,243.505 230.634,242.200 229.960 C 241.669 229.685,241.736 229.821,242.400 230.364 M161.242 230.900 C 162.029 232.405,165.922 237.837,166.644 238.436 C 167.016 238.745,166.377 237.739,165.223 236.199 C 164.070 234.660,162.675 232.635,162.125 231.700 C 161.082 229.929,160.422 229.331,161.242 230.900 M199.400 231.590 C 200.164 231.928,202.714 232.157,202.367 231.856 C 202.275 231.776,201.390 231.604,200.400 231.473 C 199.198 231.314,198.866 231.353,199.400 231.590 M207.400 231.600 L 206.200 231.905 207.400 231.925 C 208.060 231.935,208.960 231.789,209.400 231.600 L 210.200 231.256 209.400 231.275 C 208.960 231.286,208.060 231.432,207.400 231.600 M244.096 237.232 C 243.380 238.315,242.877 239.200,242.978 239.200 C 243.250 239.200,245.700 235.567,245.538 235.404 C 245.461 235.327,244.812 236.150,244.096 237.232 M167.600 239.592 C 167.600 240.109,173.553 245.536,175.576 246.863 C 177.390 248.053,176.857 247.519,173.800 245.083 C 172.920 244.381,171.165 242.785,169.900 241.536 C 168.635 240.286,167.600 239.412,167.600 239.592 M240.883 241.315 C 239.957 242.258,239.200 243.167,239.200 243.333 C 239.200 243.629,240.010 242.852,241.970 240.677 C 243.502 238.975,242.740 239.423,240.883 241.315 M237.454 244.633 C 236.823 245.187,236.387 245.720,236.483 245.816 C 236.579 245.913,237.174 245.454,237.804 244.796 C 239.196 243.343,239.016 243.259,237.454 244.633 M234.193 247.056 C 232.098 248.445,231.496 249.052,233.000 248.258 C 234.260 247.594,236.348 246.024,235.993 246.009 C 235.879 246.004,235.069 246.475,234.193 247.056 M178.154 248.596 C 179.155 249.355,185.030 252.403,185.461 252.388 C 185.647 252.382,184.292 251.585,182.448 250.617 C 180.605 249.649,178.904 248.664,178.668 248.428 C 178.433 248.193,178.051 248.006,177.820 248.013 C 177.589 248.020,177.739 248.282,178.154 248.596 M229.400 249.831 C 228.520 250.357,227.942 250.790,228.116 250.793 C 228.554 250.803,231.600 249.228,231.600 248.992 C 231.600 248.643,231.018 248.864,229.400 249.831 M222.200 252.800 C 221.908 253.273,222.299 253.273,223.400 252.800 C 224.171 252.469,224.169 252.455,223.324 252.428 C 222.842 252.413,222.336 252.580,222.200 252.800 M188.800 253.625 C 190.232 254.266,194.058 255.247,194.522 255.093 C 194.859 254.980,192.447 254.273,188.800 253.413 L 187.800 253.177 188.800 253.625 M219.600 253.618 C 219.162 253.915,219.324 253.952,220.200 253.756 C 221.671 253.427,221.990 253.198,220.967 253.206 C 220.545 253.209,219.930 253.395,219.600 253.618 M215.000 254.609 C 213.900 254.892,213.360 255.133,213.800 255.145 C 214.240 255.156,215.590 254.919,216.800 254.617 C 218.010 254.315,218.550 254.074,218.000 254.082 C 217.450 254.089,216.100 254.326,215.000 254.609 M197.400 255.623 C 198.280 255.805,199.720 255.940,200.600 255.924 C 202.167 255.894,202.159 255.887,200.200 255.582 C 197.356 255.139,195.212 255.170,197.400 255.623 M207.400 255.600 C 205.480 255.863,205.464 255.876,207.000 255.908 C 207.880 255.926,209.410 255.797,210.400 255.620 C 212.770 255.199,210.441 255.183,207.400 255.600 " stroke="none" fill="#f49c94" fill-rule="evenodd"></path><path id="path3" d="M196.600 154.640 L 194.200 155.177 196.400 154.889 C 199.262 154.513,210.771 154.516,213.600 154.893 C 215.722 155.176,215.708 155.166,213.200 154.618 C 209.882 153.892,199.880 153.906,196.600 154.640 M191.600 155.600 C 190.805 156.114,191.804 156.114,193.000 155.600 L 193.800 155.256 193.000 155.234 C 192.560 155.222,191.930 155.387,191.600 155.600 M216.433 155.344 C 216.525 155.423,217.140 155.608,217.800 155.756 C 218.676 155.952,218.838 155.915,218.400 155.618 C 217.860 155.253,216.032 154.998,216.433 155.344 M185.300 157.434 C 184.585 157.746,184.000 158.090,184.000 158.198 C 184.000 158.376,187.176 157.251,187.567 156.935 C 187.995 156.588,186.462 156.926,185.300 157.434 M223.600 157.366 C 224.150 157.660,225.050 158.019,225.600 158.164 C 226.184 158.319,225.947 158.090,225.029 157.614 C 224.164 157.166,223.264 156.807,223.029 156.816 C 222.793 156.825,223.050 157.072,223.600 157.366 M227.424 158.987 C 227.851 159.310,228.380 159.575,228.600 159.575 C 228.820 159.575,228.651 159.310,228.224 158.987 C 227.796 158.664,227.267 158.400,227.047 158.400 C 226.827 158.400,226.996 158.664,227.424 158.987 M229.200 159.790 C 229.200 159.894,229.785 160.265,230.500 160.614 L 231.800 161.248 230.800 160.433 C 229.837 159.648,229.200 159.392,229.200 159.790 M177.611 161.420 C 175.784 162.709,176.413 162.692,178.314 161.400 C 179.123 160.850,179.609 160.409,179.393 160.420 C 179.177 160.430,178.375 160.880,177.611 161.420 M232.000 161.346 C 232.000 161.456,232.540 161.930,233.200 162.400 C 233.860 162.870,234.400 163.164,234.400 163.054 C 234.400 162.944,233.860 162.470,233.200 162.000 C 232.540 161.530,232.000 161.236,232.000 161.346 M170.769 166.328 C 168.696 168.049,166.730 169.794,166.400 170.206 C 166.070 170.619,167.420 169.555,169.400 167.842 C 171.380 166.129,173.405 164.535,173.900 164.299 C 174.640 163.948,175.163 163.200,174.669 163.200 C 174.597 163.200,172.842 164.608,170.769 166.328 M237.283 165.563 C 238.758 166.921,240.721 168.880,241.644 169.916 C 243.171 171.630,243.218 171.656,242.166 170.200 C 240.977 168.554,236.962 164.638,235.451 163.650 C 234.983 163.344,235.807 164.205,237.283 165.563 M243.609 172.200 C 243.606 172.420,244.142 173.410,244.800 174.400 C 246.354 176.737,246.360 176.171,244.808 173.699 C 244.152 172.654,243.613 171.980,243.609 172.200 M160.781 177.428 C 160.089 178.434,159.602 179.335,159.699 179.432 C 159.796 179.529,160.436 178.707,161.121 177.604 C 162.679 175.098,162.461 174.985,160.781 177.428 M242.200 179.435 L 241.000 180.466 242.400 179.563 C 244.196 178.404,244.201 178.400,243.767 178.402 C 243.565 178.403,242.860 178.868,242.200 179.435 M202.700 179.482 C 203.195 179.578,204.005 179.578,204.500 179.482 C 204.995 179.387,204.590 179.309,203.600 179.309 C 202.610 179.309,202.205 179.387,202.700 179.482 M198.600 180.000 C 197.829 180.331,197.831 180.345,198.676 180.372 C 199.158 180.387,199.664 180.220,199.800 180.000 C 200.092 179.527,199.701 179.527,198.600 180.000 M208.400 180.000 C 208.730 180.213,209.450 180.373,210.000 180.354 L 211.000 180.320 210.000 180.000 C 208.458 179.506,207.636 179.506,208.400 180.000 M194.885 181.271 C 193.942 181.729,193.235 182.169,193.316 182.249 C 193.396 182.329,194.348 181.955,195.431 181.418 C 196.514 180.881,197.220 180.442,197.000 180.441 C 196.780 180.440,195.828 180.814,194.885 181.271 M238.900 181.640 C 237.965 182.302,237.200 182.933,237.200 183.041 C 237.200 183.150,238.010 182.681,239.000 182.000 C 239.990 181.319,240.800 180.680,240.800 180.581 C 240.800 180.305,240.724 180.348,238.900 181.640 M214.400 181.800 C 214.950 182.114,215.580 182.372,215.800 182.372 C 216.020 182.372,215.750 182.114,215.200 181.800 C 214.650 181.486,214.020 181.228,213.800 181.228 C 213.580 181.228,213.850 181.486,214.400 181.800 M157.321 184.101 C 157.093 184.595,156.673 185.495,156.386 186.099 C 156.100 186.704,155.962 187.295,156.079 187.412 C 156.196 187.530,156.512 187.035,156.780 186.313 C 157.047 185.591,157.444 184.667,157.661 184.261 C 157.878 183.855,157.983 183.450,157.895 183.362 C 157.807 183.273,157.548 183.606,157.321 184.101 M188.629 186.029 C 187.151 187.595,186.070 188.994,186.226 189.138 C 186.382 189.282,186.600 189.130,186.710 188.800 C 186.821 188.470,187.967 187.136,189.257 185.835 C 190.547 184.534,191.538 183.405,191.459 183.325 C 191.379 183.246,190.106 184.463,188.629 186.029 M217.615 183.473 C 217.624 183.653,218.389 184.324,219.315 184.965 C 220.242 185.606,220.746 185.823,220.436 185.446 C 219.668 184.517,217.596 183.067,217.615 183.473 M234.200 185.070 C 230.750 187.661,230.530 188.064,233.800 185.803 C 237.194 183.457,236.969 183.636,236.767 183.434 C 236.675 183.343,235.520 184.079,234.200 185.070 M222.496 188.368 C 223.212 189.450,223.861 190.273,223.938 190.196 C 224.100 190.033,221.650 186.400,221.378 186.400 C 221.277 186.400,221.780 187.285,222.496 188.368 M228.200 189.435 L 227.000 190.466 228.300 189.606 C 229.015 189.133,229.600 188.668,229.600 188.573 C 229.600 188.273,229.431 188.378,228.200 189.435 M184.450 192.158 C 183.762 193.583,183.208 194.896,183.218 195.075 C 183.229 195.254,183.854 194.150,184.608 192.623 C 185.363 191.096,185.917 189.784,185.840 189.707 C 185.763 189.629,185.137 190.733,184.450 192.158 M154.049 194.200 C 154.016 194.640,153.896 195.450,153.783 196.000 L 153.577 197.000 154.006 196.019 C 154.242 195.479,154.361 194.669,154.272 194.219 C 154.113 193.421,154.107 193.421,154.049 194.200 M153.331 200.200 C 153.333 201.740,153.405 202.321,153.492 201.491 C 153.579 200.661,153.577 199.401,153.489 198.691 C 153.400 197.981,153.329 198.660,153.331 200.200 M181.854 200.754 C 181.700 201.718,181.658 202.591,181.761 202.694 C 182.030 202.963,182.515 200.145,182.307 199.522 C 182.212 199.236,182.008 199.790,181.854 200.754 M153.099 205.800 C 153.216 207.340,153.377 208.675,153.456 208.767 C 153.734 209.088,153.517 204.989,153.203 204.000 C 153.019 203.419,152.975 204.173,153.099 205.800 M181.687 209.200 C 181.691 209.750,181.832 210.740,182.000 211.400 L 182.305 212.600 182.313 211.400 C 182.317 210.740,182.176 209.750,182.000 209.200 L 181.680 208.200 181.687 209.200 M153.687 209.800 C 153.691 210.240,153.832 211.140,154.000 211.800 C 154.274 212.878,154.306 212.898,154.313 212.000 C 154.317 211.450,154.176 210.550,154.000 210.000 C 153.749 209.216,153.681 209.173,153.687 209.800 M183.200 216.521 C 183.200 217.018,185.208 221.158,185.552 221.370 C 185.744 221.489,185.360 220.464,184.698 219.093 C 183.457 216.524,183.200 216.083,183.200 216.521 M155.228 217.476 C 155.213 217.958,155.380 218.464,155.600 218.600 C 156.073 218.892,156.073 218.501,155.600 217.400 C 155.269 216.629,155.255 216.631,155.228 217.476 M223.423 220.089 C 223.080 220.578,222.807 221.163,222.816 221.389 C 222.825 221.615,223.101 221.305,223.429 220.700 C 224.139 219.390,224.577 219.345,226.310 220.401 C 228.174 221.538,228.468 221.392,226.714 220.200 C 224.902 218.968,224.224 218.946,223.423 220.089 M156.816 222.254 C 156.807 222.504,157.063 223.314,157.384 224.054 C 157.706 224.794,157.976 225.196,157.984 224.946 C 157.993 224.696,157.737 223.886,157.416 223.146 C 157.094 222.406,156.824 222.004,156.816 222.254 M186.726 223.000 C 188.063 224.988,193.376 229.558,193.826 229.107 C 193.922 229.011,193.004 228.247,191.785 227.408 C 190.567 226.569,188.749 224.964,187.745 223.841 C 186.741 222.719,186.282 222.340,186.726 223.000 M232.086 223.800 C 232.895 224.350,233.699 224.800,233.872 224.800 C 234.044 224.800,233.523 224.350,232.714 223.800 C 231.905 223.250,231.101 222.800,230.928 222.800 C 230.756 222.800,231.277 223.250,232.086 223.800 M219.479 225.693 C 217.893 227.389,218.371 227.481,220.006 225.794 C 220.749 225.027,221.187 224.421,220.978 224.447 C 220.770 224.474,220.096 225.034,219.479 225.693 M236.833 226.558 C 237.349 227.045,241.216 229.149,241.023 228.838 C 240.792 228.463,237.288 226.400,236.883 226.400 C 236.764 226.400,236.742 226.471,236.833 226.558 M160.402 230.101 C 160.401 230.267,160.937 231.257,161.592 232.301 C 162.248 233.346,162.787 234.020,162.791 233.800 C 162.794 233.580,162.258 232.590,161.600 231.600 C 160.942 230.610,160.403 229.936,160.402 230.101 M201.465 231.351 C 203.112 231.553,205.665 231.553,207.465 231.351 C 210.370 231.026,210.159 231.000,204.600 231.000 C 199.245 231.000,198.908 231.038,201.465 231.351 M244.976 231.413 C 245.404 231.736,245.899 232.000,246.076 232.000 C 246.701 232.000,246.389 234.213,245.577 235.545 C 245.126 236.285,244.844 236.977,244.951 237.084 C 245.276 237.409,246.800 234.095,246.800 233.062 C 246.800 232.472,246.413 231.839,245.814 231.446 C 244.586 230.641,243.922 230.615,244.976 231.413 M163.954 235.936 C 164.399 236.560,165.084 237.325,165.477 237.636 C 165.870 237.946,165.698 237.601,165.096 236.869 C 164.493 236.137,164.000 235.372,164.000 235.169 C 164.000 234.966,163.808 234.800,163.573 234.800 C 163.338 234.800,163.509 235.311,163.954 235.936 M167.220 239.900 C 167.978 240.725,168.757 241.580,168.953 241.800 C 169.159 242.033,169.160 241.932,168.954 241.559 C 168.400 240.556,166.485 238.400,166.147 238.400 C 165.980 238.400,166.463 239.075,167.220 239.900 M241.038 241.900 C 238.476 244.795,238.450 244.841,240.653 242.600 C 243.045 240.166,244.226 238.800,243.940 238.800 C 243.854 238.800,242.548 240.195,241.038 241.900 M170.429 243.100 C 170.445 243.265,171.120 243.930,171.929 244.579 L 173.400 245.757 172.022 244.279 C 170.597 242.751,170.380 242.590,170.429 243.100 M174.813 246.688 C 174.829 247.087,176.799 248.534,177.022 248.311 C 177.115 248.219,176.652 247.746,175.995 247.260 C 175.338 246.774,174.806 246.516,174.813 246.688 M233.807 247.822 C 232.711 248.580,231.959 249.200,232.135 249.200 C 232.518 249.200,236.000 246.840,236.000 246.581 C 236.000 246.311,235.959 246.334,233.807 247.822 M181.600 250.991 C 181.600 251.237,184.899 252.835,185.065 252.669 C 185.185 252.548,182.096 250.800,181.762 250.800 C 181.673 250.800,181.600 250.886,181.600 250.991 M226.200 251.791 C 225.100 252.309,224.391 252.748,224.625 252.767 C 224.859 252.785,225.939 252.359,227.025 251.821 C 229.552 250.568,228.850 250.543,226.200 251.791 M191.546 254.980 C 192.286 255.321,193.456 255.579,194.146 255.554 L 195.400 255.508 194.000 255.210 C 193.230 255.047,192.060 254.788,191.400 254.637 C 190.221 254.365,190.224 254.371,191.546 254.980 M217.093 254.641 C 216.961 254.773,215.896 255.020,214.726 255.191 C 213.054 255.434,212.899 255.510,214.000 255.544 C 214.770 255.568,216.210 255.333,217.200 255.021 C 218.190 254.709,218.625 254.441,218.167 254.427 C 217.708 254.412,217.225 254.508,217.093 254.641 M196.400 256.006 C 197.383 256.315,203.093 256.538,202.767 256.255 C 202.675 256.176,200.980 256.017,199.000 255.902 C 197.020 255.787,195.850 255.834,196.400 256.006 M208.000 256.000 L 205.000 256.256 207.800 256.288 C 209.340 256.306,211.050 256.176,211.600 256.000 C 212.778 255.623,212.425 255.623,208.000 256.000 " stroke="none" fill="#f46d65" fill-rule="evenodd"></path><path id="path4" d="M209.300 154.676 C 209.685 154.776,210.315 154.776,210.700 154.676 C 211.085 154.575,210.770 154.493,210.000 154.493 C 209.230 154.493,208.915 154.575,209.300 154.676 M181.334 205.600 C 181.334 207.250,181.405 207.925,181.491 207.100 C 181.578 206.275,181.578 204.925,181.491 204.100 C 181.405 203.275,181.334 203.950,181.334 205.600 M203.300 231.887 C 203.905 231.978,204.895 231.978,205.500 231.887 C 206.105 231.795,205.610 231.720,204.400 231.720 C 203.190 231.720,202.695 231.795,203.300 231.887 M203.300 256.276 C 203.685 256.376,204.315 256.376,204.700 256.276 C 205.085 256.175,204.770 256.093,204.000 256.093 C 203.230 256.093,202.915 256.175,203.300 256.276 " stroke="none" fill="#f48c84" fill-rule="evenodd"></path></g></svg>